<?xml version="1.0" encoding="UTF-8"?>
<svg version="1.1" xmlns="http://www.w3.org/2000/svg" width="512" height="512">
<path d="M0 0 C1.23948898 -0.00511093 2.47897797 -0.01022186 3.75602722 -0.01548767 C7.11182142 -0.02689292 10.46736614 -0.02947541 13.82316184 -0.02692437 C16.64790051 -0.02584244 19.47261728 -0.03076907 22.29735118 -0.03552979 C28.97592059 -0.04656739 35.65443373 -0.04709576 42.33300781 -0.04101562 C49.16762642 -0.03498793 56.00203853 -0.04726945 62.83662194 -0.06858569 C68.75308891 -0.08634351 74.66949102 -0.09218078 80.58598357 -0.08894795 C84.09809203 -0.0871565 87.61005335 -0.08955182 91.12213707 -0.10366249 C124.1309906 -0.22485346 153.57767755 4.6745021 182.15356445 22.0871582 C182.72220215 22.42835693 183.29083984 22.76955566 183.87670898 23.12109375 C198.00018881 32.14718391 209.82668729 44.95001546 221.5949707 56.72045898 C224.29126334 59.4123363 227.0032384 62.08773725 229.71606445 64.76293945 C231.45662463 66.49763694 233.1962419 68.23328115 234.93481445 69.9699707 C236.1349115 71.1485112 236.1349115 71.1485112 237.35925293 72.3508606 C247.37793627 82.45117587 253.42965199 93.98929867 254.02856445 108.3371582 C253.82371006 121.83478651 248.83687972 132.83430815 239.7199707 142.55200195 C227.63999826 154.1869453 212.13245552 162.80384914 197.77856445 171.2746582 C197.12887695 171.65960449 196.47918945 172.04455078 195.80981445 172.44116211 C157.45726967 194.84501982 109.48715435 208.26393824 65.08325195 208.4777832 C64.10085541 208.48484283 63.11845886 208.49190247 62.10629272 208.49917603 C21.17643134 208.72658434 21.17643134 208.72658434 2.77856445 205.2746582 C1.13597656 204.97664307 1.13597656 204.97664307 -0.53979492 204.67260742 C-29.72096502 199.25289929 -58.05437639 190.07879338 -84.35522461 176.24829102 C-86.1624226 175.30544622 -87.98205318 174.39275467 -89.80737305 173.4855957 C-111.18393465 162.69405351 -139.93161563 147.00300913 -148.22143555 123.2746582 C-151.73215921 111.01469652 -150.97184396 98.0736833 -145.09643555 86.5871582 C-137.92132553 75.22520533 -127.03576097 65.8399002 -117.61328125 56.37133789 C-115.98505709 54.73161429 -114.36130196 53.08744014 -112.7421875 51.4387207 C-100.15248379 38.61992713 -87.20564798 26.40967234 -71.22143555 17.8996582 C-70.47563232 17.49593994 -69.7298291 17.09222168 -68.96142578 16.67626953 C-58.61360229 11.2115409 -47.86428461 7.58555133 -36.59643555 4.5246582 C-35.86948486 4.32573975 -35.14253418 4.12682129 -34.39355469 3.921875 C-23.06374933 1.00592311 -11.66880933 -0.0254608 0 0 Z " fill="#000000" transform="translate(204.221435546875,303.725341796875)"/>
<path d="M0 0 C0.70176361 0.00087616 1.40352722 0.00175232 2.1265564 0.00265503 C33.22362661 0.13024498 60.59572467 10.61940055 84.5 30.375 C85.27085937 31.0040625 86.04171875 31.633125 86.8359375 32.28125 C91.5491663 36.25408653 95.62096201 40.59002957 99.5 45.375 C100.19996094 46.23738281 100.89992188 47.09976563 101.62109375 47.98828125 C123.50019409 76.01021392 132.83400041 110.42760226 128.55249023 145.70483398 C125.11992909 170.41982831 115.00716684 193.62331306 98.5 212.375 C97.80261719 213.20515625 97.10523438 214.0353125 96.38671875 214.890625 C75.64550126 239.00655612 45.01426161 253.99947048 13.45703125 257.1328125 C-24.1319141 259.43341922 -57.7724227 248.87050716 -86.39453125 224.18359375 C-110.93406275 202.35059934 -126.11823474 170.92691363 -128.37109375 138.140625 C-128.41363281 137.22796875 -128.45617187 136.3153125 -128.5 135.375 C-128.57927734 133.88226563 -128.57927734 133.88226563 -128.66015625 132.359375 C-129.11343883 115.72587499 -126.45816427 98.91006644 -120.5 83.375 C-120.25266113 82.72370117 -120.00532227 82.07240234 -119.75048828 81.40136719 C-113.49346042 65.28942224 -104.6957244 51.60819206 -92.5 39.375 C-91.65953125 38.52808594 -90.8190625 37.68117187 -89.953125 36.80859375 C-65.54789595 12.59767385 -34.38489642 -0.10534869 0 0 Z " fill="#000000" transform="translate(255.5,-0.375)"/>
</svg>
