<svg width="295" height="290" viewBox="0 0 295 290" fill="none" xmlns="http://www.w3.org/2000/svg">
<circle cx="148" cy="115" r="112.5" fill="#191919" stroke="#A81F25" stroke-width="5"/>
<path d="M70.5008 114.831C70.4572 104.457 72.4575 94.1757 76.3874 84.5744C80.3173 74.9731 86.0998 66.2399 93.4048 58.8733C100.71 51.5068 109.394 45.6512 118.962 41.6409C128.53 37.6307 138.794 35.5442 149.169 35.5007" stroke="#A81F25" stroke-width="25"/>
<path d="M137.31 126.6C135.523 126.6 133.896 126.167 132.43 125.3C130.963 124.42 129.796 123.1 128.93 121.34C128.063 119.58 127.63 117.387 127.63 114.76C127.63 112.533 127.93 110.48 128.53 108.6C129.13 106.72 129.883 105.027 130.79 103.52C131.71 102.013 132.65 100.707 133.61 99.6C134.583 98.4933 135.443 97.6 136.19 96.92H141.77C141.05 97.52 140.243 98.2267 139.35 99.04C138.47 99.84 137.576 100.74 136.67 101.74C135.776 102.727 134.943 103.813 134.17 105C133.396 106.173 132.756 107.44 132.25 108.8C131.756 110.147 131.476 111.58 131.41 113.1L131.27 112.74C131.47 111.833 131.783 111.02 132.21 110.3C132.636 109.567 133.163 108.94 133.79 108.42C134.416 107.9 135.123 107.5 135.91 107.22C136.71 106.94 137.576 106.8 138.51 106.8C140.31 106.8 141.83 107.2 143.07 108C144.31 108.8 145.25 109.927 145.89 111.38C146.543 112.82 146.87 114.52 146.87 116.48C146.87 118.053 146.616 119.467 146.11 120.72C145.616 121.96 144.923 123.02 144.03 123.9C143.15 124.78 142.13 125.453 140.97 125.92C139.823 126.373 138.603 126.6 137.31 126.6ZM137.37 123.16C138.423 123.16 139.383 122.9 140.25 122.38C141.116 121.86 141.803 121.107 142.31 120.12C142.83 119.133 143.083 117.94 143.07 116.54C143.07 114.567 142.603 113.02 141.67 111.9C140.75 110.78 139.396 110.22 137.61 110.22C136.57 110.22 135.663 110.373 134.89 110.68C134.116 110.987 133.463 111.373 132.93 111.84C132.396 112.293 131.956 112.767 131.61 113.26C131.556 113.367 131.516 113.64 131.49 114.08C131.463 114.52 131.45 114.907 131.45 115.24C131.45 116.307 131.57 117.32 131.81 118.28C132.05 119.227 132.41 120.067 132.89 120.8C133.383 121.533 134.003 122.113 134.75 122.54C135.496 122.953 136.37 123.16 137.37 123.16ZM154.221 126C154.928 125.4 155.728 124.687 156.621 123.86C157.528 123.033 158.434 122.113 159.341 121.1C160.248 120.073 161.088 118.96 161.861 117.76C162.648 116.56 163.288 115.28 163.781 113.92C164.288 112.56 164.568 111.133 164.621 109.64L164.901 109.66C164.674 110.633 164.361 111.507 163.961 112.28C163.561 113.053 163.068 113.713 162.481 114.26C161.908 114.807 161.234 115.227 160.461 115.52C159.688 115.8 158.808 115.94 157.821 115.94C156.141 115.94 154.641 115.527 153.321 114.7C152.014 113.873 150.988 112.727 150.241 111.26C149.494 109.78 149.121 108.087 149.121 106.18C149.121 104.567 149.381 103.147 149.901 101.92C150.434 100.693 151.148 99.6667 152.041 98.84C152.948 98 153.974 97.3733 155.121 96.96C156.281 96.5333 157.488 96.32 158.741 96.32C160.541 96.32 162.168 96.74 163.621 97.58C165.088 98.42 166.248 99.72 167.101 101.48C167.954 103.227 168.381 105.473 168.381 108.22C168.381 110.433 168.081 112.48 167.481 114.36C166.881 116.227 166.121 117.913 165.201 119.42C164.294 120.913 163.354 122.213 162.381 123.32C161.421 124.427 160.568 125.32 159.821 126H154.221ZM158.541 112.54C159.541 112.54 160.414 112.393 161.161 112.1C161.908 111.793 162.541 111.393 163.061 110.9C163.594 110.407 164.034 109.873 164.381 109.3C164.448 109.193 164.488 108.96 164.501 108.6C164.514 108.227 164.521 107.84 164.521 107.44C164.521 105.933 164.301 104.607 163.861 103.46C163.421 102.3 162.768 101.393 161.901 100.74C161.034 100.073 159.954 99.74 158.661 99.74C157.594 99.74 156.621 99.9933 155.741 100.5C154.874 100.993 154.188 101.72 153.681 102.68C153.174 103.627 152.921 104.773 152.921 106.12C152.921 108.013 153.394 109.56 154.341 110.76C155.301 111.947 156.701 112.54 158.541 112.54Z" fill="white"/>
<path d="M10.2553 283.315C8.39527 283.315 6.73027 282.88 5.26027 282.01C3.80027 281.14 2.65027 279.87 1.81027 278.2C0.970273 276.52 0.550273 274.47 0.550273 272.05C0.550273 269.76 0.960274 267.775 1.78027 266.095C2.60027 264.405 3.74527 263.1 5.21527 262.18C6.68527 261.25 8.39027 260.785 10.3303 260.785C11.7603 260.785 13.0753 261.065 14.2753 261.625C15.4853 262.185 16.4603 263.015 17.2003 264.115C17.9503 265.205 18.3503 266.555 18.4003 268.165H15.5353C15.4753 267.095 15.1953 266.21 14.6953 265.51C14.2053 264.8 13.5703 264.27 12.7903 263.92C12.0103 263.56 11.1503 263.38 10.2103 263.38C8.92027 263.38 7.76027 263.725 6.73027 264.415C5.71027 265.095 4.90527 266.08 4.31527 267.37C3.72527 268.66 3.43027 270.215 3.43027 272.035C3.43027 274.105 3.74027 275.78 4.36027 277.06C4.98027 278.33 5.81027 279.26 6.85027 279.85C7.89027 280.43 9.04027 280.72 10.3003 280.72C11.4503 280.72 12.4003 280.515 13.1503 280.105C13.9103 279.685 14.4903 279.135 14.8903 278.455C15.2903 277.775 15.5153 277.04 15.5653 276.25H18.4003C18.3103 277.7 17.9253 278.955 17.2453 280.015C16.5753 281.075 15.6503 281.89 14.4703 282.46C13.2903 283.03 11.8853 283.315 10.2553 283.315ZM27.8908 283.225C26.4508 283.225 25.1858 282.9 24.0958 282.25C23.0158 281.6 22.1708 280.645 21.5608 279.385C20.9608 278.115 20.6608 276.56 20.6608 274.72C20.6608 272.98 20.9808 271.48 21.6208 270.22C22.2608 268.96 23.1308 267.995 24.2308 267.325C25.3408 266.645 26.5808 266.305 27.9508 266.305C29.4408 266.305 30.7258 266.645 31.8058 267.325C32.8958 267.995 33.7358 268.96 34.3258 270.22C34.9158 271.48 35.2108 272.98 35.2108 274.72C35.2108 276.56 34.8808 278.115 34.2208 279.385C33.5708 280.645 32.6908 281.6 31.5808 282.25C30.4708 282.9 29.2408 283.225 27.8908 283.225ZM27.9508 280.765C29.2908 280.765 30.3608 280.265 31.1608 279.265C31.9608 278.265 32.3608 276.75 32.3608 274.72C32.3608 272.78 31.9658 271.305 31.1758 270.295C30.3958 269.275 29.3008 268.765 27.8908 268.765C26.5608 268.765 25.4958 269.275 24.6958 270.295C23.9058 271.305 23.5108 272.78 23.5108 274.72C23.5108 276.68 23.9108 278.18 24.7108 279.22C25.5208 280.25 26.6008 280.765 27.9508 280.765ZM39.0281 283V259.675H41.8181V283H39.0281ZM46.7918 283V259.675H49.5818V283H46.7918ZM60.809 283.225C59.319 283.225 58.009 282.9 56.879 282.25C55.759 281.6 54.889 280.645 54.269 279.385C53.649 278.115 53.339 276.565 53.339 274.735C53.339 272.975 53.659 271.465 54.299 270.205C54.939 268.945 55.819 267.98 56.939 267.31C58.059 266.64 59.334 266.305 60.764 266.305C62.184 266.305 63.399 266.61 64.409 267.22C65.429 267.83 66.214 268.705 66.764 269.845C67.314 270.975 67.584 272.33 67.574 273.91C67.574 274.23 67.564 274.495 67.544 274.705C67.524 274.915 67.509 275.135 67.499 275.365H56.129C56.199 277.165 56.649 278.53 57.479 279.46C58.319 280.38 59.389 280.84 60.689 280.84C61.789 280.84 62.639 280.61 63.239 280.15C63.849 279.68 64.234 279.08 64.394 278.35H67.124C67.054 279.39 66.734 280.275 66.164 281.005C65.604 281.735 64.864 282.29 63.944 282.67C63.024 283.04 61.979 283.225 60.809 283.225ZM57.614 273.265H64.769C64.749 271.865 64.404 270.765 63.734 269.965C63.064 269.165 62.039 268.765 60.659 268.765C59.209 268.765 58.109 269.26 57.359 270.25C56.609 271.23 56.199 272.585 56.129 274.315C56.209 273.905 56.369 273.63 56.609 273.49C56.859 273.34 57.194 273.265 57.614 273.265ZM77.3882 289.675C76.1482 289.675 75.0232 289.46 74.0132 289.03C73.0032 288.6 72.2182 287.94 71.6582 287.05C71.0982 286.17 70.8732 285.055 70.9832 283.705H73.6832C73.6532 284.455 73.7482 285.095 73.9682 285.625C74.1882 286.155 74.5782 286.56 75.1382 286.84C75.6982 287.12 76.4682 287.26 77.4482 287.26C78.4082 287.26 79.1432 287.12 79.6532 286.84C80.1632 286.56 80.5132 286.125 80.7032 285.535C80.9032 284.945 81.0032 284.185 81.0032 283.255V278.86C80.9132 279.31 80.7082 279.795 80.3882 280.315C80.0782 280.835 79.6082 281.28 78.9782 281.65C78.3582 282.02 77.5282 282.205 76.4882 282.205C75.5382 282.205 74.6782 282.005 73.9082 281.605C73.1382 281.195 72.4732 280.635 71.9132 279.925C71.3632 279.215 70.9382 278.39 70.6382 277.45C70.3482 276.51 70.2032 275.51 70.2032 274.45C70.2032 272.67 70.5032 271.18 71.1032 269.98C71.7032 268.77 72.4882 267.86 73.4582 267.25C74.4282 266.63 75.4682 266.32 76.5782 266.32C77.4882 266.32 78.2332 266.445 78.8132 266.695C79.4032 266.935 79.8732 267.235 80.2232 267.595C80.5732 267.955 80.8332 268.305 81.0032 268.645V266.635H83.7482V283.165C83.7482 284.745 83.4732 286.01 82.9232 286.96C82.3732 287.91 81.6182 288.595 80.6582 289.015C79.7082 289.445 78.6182 289.665 77.3882 289.675ZM77.3432 279.88C78.0932 279.88 78.7182 279.76 79.2182 279.52C79.7182 279.27 80.1132 278.965 80.4032 278.605C80.6932 278.245 80.8932 277.9 81.0032 277.57V270.61C80.9132 270.37 80.7182 270.105 80.4182 269.815C80.1182 269.525 79.7182 269.275 79.2182 269.065C78.7182 268.855 78.1082 268.75 77.3882 268.75C76.1082 268.75 75.0732 269.21 74.2832 270.13C73.4932 271.04 73.0982 272.435 73.0982 274.315C73.0982 276.135 73.4932 277.52 74.2832 278.47C75.0832 279.41 76.1032 279.88 77.3432 279.88ZM94.9985 283.225C93.5085 283.225 92.1985 282.9 91.0685 282.25C89.9485 281.6 89.0785 280.645 88.4585 279.385C87.8385 278.115 87.5285 276.565 87.5285 274.735C87.5285 272.975 87.8485 271.465 88.4885 270.205C89.1285 268.945 90.0085 267.98 91.1285 267.31C92.2485 266.64 93.5235 266.305 94.9535 266.305C96.3735 266.305 97.5885 266.61 98.5985 267.22C99.6185 267.83 100.403 268.705 100.953 269.845C101.503 270.975 101.773 272.33 101.763 273.91C101.763 274.23 101.753 274.495 101.733 274.705C101.713 274.915 101.698 275.135 101.688 275.365H90.3185C90.3885 277.165 90.8385 278.53 91.6685 279.46C92.5085 280.38 93.5785 280.84 94.8785 280.84C95.9785 280.84 96.8285 280.61 97.4285 280.15C98.0385 279.68 98.4235 279.08 98.5835 278.35H101.313C101.243 279.39 100.923 280.275 100.353 281.005C99.7935 281.735 99.0535 282.29 98.1335 282.67C97.2135 283.04 96.1685 283.225 94.9985 283.225ZM91.8035 273.265H98.9585C98.9385 271.865 98.5935 270.765 97.9235 269.965C97.2535 269.165 96.2285 268.765 94.8485 268.765C93.3985 268.765 92.2985 269.26 91.5485 270.25C90.7985 271.23 90.3885 272.585 90.3185 274.315C90.3985 273.905 90.5585 273.63 90.7985 273.49C91.0485 273.34 91.3835 273.265 91.8035 273.265ZM108.708 283L115.998 261.19H119.808L127.083 283H124.098L122.013 276.445L123.633 277.585H112.503L113.613 275.14H122.853L121.968 276.295L119.208 267.67L117.918 263.275H117.843L116.598 267.67L111.693 283H108.708ZM129.906 283V266.62H132.276L132.591 272.8L132.321 271.555C132.451 270.585 132.721 269.705 133.131 268.915C133.541 268.115 134.121 267.48 134.871 267.01C135.621 266.53 136.566 266.29 137.706 266.29C139.036 266.29 140.091 266.665 140.871 267.415C141.661 268.155 142.146 269.295 142.326 270.835L142.401 271.06V283H139.611V272.8C139.611 271.87 139.511 271.12 139.311 270.55C139.121 269.98 138.811 269.565 138.381 269.305C137.951 269.035 137.386 268.9 136.686 268.9C135.806 268.9 135.031 269.145 134.361 269.635C133.691 270.125 133.141 270.8 132.711 271.66V283H129.906ZM149.316 283V272.785C149.316 271.865 149.216 271.12 149.016 270.55C148.816 269.98 148.501 269.565 148.071 269.305C147.651 269.035 147.091 268.9 146.391 268.9C145.511 268.9 144.736 269.145 144.066 269.635C143.396 270.125 142.841 270.8 142.401 271.66L142.341 272.8L142.071 271.735C142.181 270.785 142.436 269.895 142.836 269.065C143.236 268.235 143.806 267.565 144.546 267.055C145.296 266.545 146.236 266.29 147.366 266.29C148.856 266.29 150.016 266.76 150.846 267.7C151.686 268.64 152.106 270.03 152.106 271.87V283H149.316ZM164.074 283.18C163.004 283.18 162.144 282.99 161.494 282.61C160.854 282.23 160.374 281.79 160.054 281.29C159.744 280.79 159.554 280.37 159.484 280.03L158.779 279.535L159.679 279.16C159.739 279.36 159.919 279.6 160.219 279.88C160.519 280.16 160.924 280.405 161.434 280.615C161.954 280.825 162.554 280.93 163.234 280.93C164.514 280.93 165.564 280.425 166.384 279.415C167.204 278.405 167.614 276.845 167.614 274.735C167.614 272.725 167.234 271.23 166.474 270.25C165.724 269.27 164.769 268.78 163.609 268.78C162.809 268.78 162.134 268.905 161.584 269.155C161.034 269.405 160.604 269.705 160.294 270.055C159.984 270.405 159.779 270.74 159.679 271.06L159.424 270.625L159.679 270.22C159.729 269.56 159.929 268.935 160.279 268.345C160.639 267.745 161.164 267.26 161.854 266.89C162.544 266.51 163.409 266.32 164.449 266.32C165.689 266.32 166.759 266.655 167.659 267.325C168.559 267.985 169.254 268.93 169.744 270.16C170.234 271.38 170.479 272.835 170.479 274.525C170.479 275.975 170.294 277.245 169.924 278.335C169.554 279.415 169.059 280.315 168.439 281.035C167.819 281.755 167.129 282.295 166.369 282.655C165.619 283.005 164.854 283.18 164.074 283.18ZM156.919 283L156.904 259.66H159.679V266.98L159.694 279.46L159.964 280L159.679 280.345L159.559 283H156.919ZM178.516 283.18C177.476 283.18 176.576 282.985 175.816 282.595C175.066 282.195 174.486 281.655 174.076 280.975C173.676 280.295 173.476 279.525 173.476 278.665C173.476 277.775 173.651 277.025 174.001 276.415C174.351 275.795 174.856 275.29 175.516 274.9C176.176 274.5 176.976 274.2 177.916 274C178.536 273.86 179.191 273.75 179.881 273.67C180.581 273.59 181.251 273.525 181.891 273.475C182.531 273.425 183.076 273.39 183.526 273.37V272.455C183.526 271.145 183.251 270.205 182.701 269.635C182.151 269.055 181.296 268.765 180.136 268.765C179.416 268.765 178.781 268.86 178.231 269.05C177.691 269.24 177.271 269.595 176.971 270.115C176.671 270.625 176.526 271.375 176.536 272.365H173.926C173.806 271.015 173.996 269.895 174.496 269.005C174.996 268.105 175.746 267.435 176.746 266.995C177.746 266.545 178.931 266.32 180.301 266.32C181.081 266.32 181.826 266.415 182.536 266.605C183.246 266.785 183.876 267.095 184.426 267.535C184.976 267.965 185.411 268.555 185.731 269.305C186.051 270.055 186.211 270.995 186.211 272.125V283H183.496L183.526 279.445C183.276 280.575 182.711 281.48 181.831 282.16C180.961 282.84 179.856 283.18 178.516 283.18ZM179.161 280.975C179.891 280.975 180.561 280.84 181.171 280.57C181.791 280.3 182.311 279.955 182.731 279.535C183.151 279.115 183.416 278.685 183.526 278.245V275.065C182.946 275.105 182.301 275.175 181.591 275.275C180.881 275.365 180.256 275.475 179.716 275.605C178.636 275.855 177.831 276.19 177.301 276.61C176.781 277.03 176.521 277.635 176.521 278.425C176.521 278.895 176.621 279.325 176.821 279.715C177.031 280.095 177.331 280.4 177.721 280.63C178.111 280.85 178.591 280.965 179.161 280.975ZM195.873 283.255C194.743 283.255 193.708 283.085 192.768 282.745C191.838 282.395 191.083 281.855 190.503 281.125C189.923 280.385 189.598 279.435 189.528 278.275H192.288C192.468 279.275 192.863 279.965 193.473 280.345C194.093 280.715 194.878 280.9 195.828 280.9C196.478 280.9 197.063 280.83 197.583 280.69C198.113 280.55 198.533 280.315 198.843 279.985C199.153 279.655 199.308 279.205 199.308 278.635C199.308 278.195 199.213 277.84 199.023 277.57C198.833 277.3 198.568 277.08 198.228 276.91C197.888 276.73 197.488 276.575 197.028 276.445C196.578 276.315 196.088 276.175 195.558 276.025C194.568 275.735 193.653 275.4 192.813 275.02C191.973 274.63 191.298 274.11 190.788 273.46C190.278 272.81 190.023 271.94 190.023 270.85C190.023 269.51 190.533 268.425 191.553 267.595C192.573 266.755 193.913 266.335 195.573 266.335C196.623 266.335 197.568 266.495 198.408 266.815C199.258 267.135 199.948 267.65 200.478 268.36C201.018 269.06 201.348 270 201.468 271.18H198.723C198.623 270.64 198.438 270.185 198.168 269.815C197.908 269.445 197.563 269.165 197.133 268.975C196.703 268.785 196.178 268.69 195.558 268.69C195.038 268.69 194.568 268.765 194.148 268.915C193.728 269.055 193.393 269.28 193.143 269.59C192.893 269.9 192.768 270.31 192.768 270.82C192.768 271.38 192.918 271.83 193.218 272.17C193.518 272.51 193.943 272.795 194.493 273.025C195.043 273.245 195.688 273.465 196.428 273.685C196.998 273.865 197.608 274.055 198.258 274.255C198.908 274.445 199.518 274.7 200.088 275.02C200.668 275.34 201.138 275.77 201.498 276.31C201.868 276.84 202.053 277.535 202.053 278.395C202.053 279.935 201.483 281.13 200.343 281.98C199.203 282.83 197.713 283.255 195.873 283.255ZM210.99 283.255C209.86 283.255 208.825 283.085 207.885 282.745C206.955 282.395 206.2 281.855 205.62 281.125C205.04 280.385 204.715 279.435 204.645 278.275H207.405C207.585 279.275 207.98 279.965 208.59 280.345C209.21 280.715 209.995 280.9 210.945 280.9C211.595 280.9 212.18 280.83 212.7 280.69C213.23 280.55 213.65 280.315 213.96 279.985C214.27 279.655 214.425 279.205 214.425 278.635C214.425 278.195 214.33 277.84 214.14 277.57C213.95 277.3 213.685 277.08 213.345 276.91C213.005 276.73 212.605 276.575 212.145 276.445C211.695 276.315 211.205 276.175 210.675 276.025C209.685 275.735 208.77 275.4 207.93 275.02C207.09 274.63 206.415 274.11 205.905 273.46C205.395 272.81 205.14 271.94 205.14 270.85C205.14 269.51 205.65 268.425 206.67 267.595C207.69 266.755 209.03 266.335 210.69 266.335C211.74 266.335 212.685 266.495 213.525 266.815C214.375 267.135 215.065 267.65 215.595 268.36C216.135 269.06 216.465 270 216.585 271.18H213.84C213.74 270.64 213.555 270.185 213.285 269.815C213.025 269.445 212.68 269.165 212.25 268.975C211.82 268.785 211.295 268.69 210.675 268.69C210.155 268.69 209.685 268.765 209.265 268.915C208.845 269.055 208.51 269.28 208.26 269.59C208.01 269.9 207.885 270.31 207.885 270.82C207.885 271.38 208.035 271.83 208.335 272.17C208.635 272.51 209.06 272.795 209.61 273.025C210.16 273.245 210.805 273.465 211.545 273.685C212.115 273.865 212.725 274.055 213.375 274.255C214.025 274.445 214.635 274.7 215.205 275.02C215.785 275.34 216.255 275.77 216.615 276.31C216.985 276.84 217.17 277.535 217.17 278.395C217.17 279.935 216.6 281.13 215.46 281.98C214.32 282.83 212.83 283.255 210.99 283.255ZM224.922 283.18C223.882 283.18 222.982 282.985 222.222 282.595C221.472 282.195 220.892 281.655 220.482 280.975C220.082 280.295 219.882 279.525 219.882 278.665C219.882 277.775 220.057 277.025 220.407 276.415C220.757 275.795 221.262 275.29 221.922 274.9C222.582 274.5 223.382 274.2 224.322 274C224.942 273.86 225.597 273.75 226.287 273.67C226.987 273.59 227.657 273.525 228.297 273.475C228.937 273.425 229.482 273.39 229.932 273.37V272.455C229.932 271.145 229.657 270.205 229.107 269.635C228.557 269.055 227.702 268.765 226.542 268.765C225.822 268.765 225.187 268.86 224.637 269.05C224.097 269.24 223.677 269.595 223.377 270.115C223.077 270.625 222.932 271.375 222.942 272.365H220.332C220.212 271.015 220.402 269.895 220.902 269.005C221.402 268.105 222.152 267.435 223.152 266.995C224.152 266.545 225.337 266.32 226.707 266.32C227.487 266.32 228.232 266.415 228.942 266.605C229.652 266.785 230.282 267.095 230.832 267.535C231.382 267.965 231.817 268.555 232.137 269.305C232.457 270.055 232.617 270.995 232.617 272.125V283H229.902L229.932 279.445C229.682 280.575 229.117 281.48 228.237 282.16C227.367 282.84 226.262 283.18 224.922 283.18ZM225.567 280.975C226.297 280.975 226.967 280.84 227.577 280.57C228.197 280.3 228.717 279.955 229.137 279.535C229.557 279.115 229.822 278.685 229.932 278.245V275.065C229.352 275.105 228.707 275.175 227.997 275.275C227.287 275.365 226.662 275.475 226.122 275.605C225.042 275.855 224.237 276.19 223.707 276.61C223.187 277.03 222.927 277.635 222.927 278.425C222.927 278.895 223.027 279.325 223.227 279.715C223.437 280.095 223.737 280.4 224.127 280.63C224.517 280.85 224.997 280.965 225.567 280.975ZM242.722 283.18C241.392 283.18 240.242 282.83 239.272 282.13C238.312 281.43 237.572 280.445 237.052 279.175C236.542 277.905 236.287 276.42 236.287 274.72C236.287 272.84 236.602 271.28 237.232 270.04C237.872 268.79 238.692 267.86 239.692 267.25C240.702 266.63 241.767 266.32 242.887 266.32C243.977 266.32 244.832 266.505 245.452 266.875C246.082 267.245 246.542 267.675 246.832 268.165C247.132 268.645 247.312 269.06 247.372 269.41L248.257 269.56L247.177 270.505C247.107 270.295 246.937 270.055 246.667 269.785C246.397 269.505 246.012 269.265 245.512 269.065C245.012 268.855 244.377 268.75 243.607 268.75C242.317 268.75 241.252 269.235 240.412 270.205C239.572 271.165 239.152 272.69 239.152 274.78C239.152 276.72 239.547 278.21 240.337 279.25C241.137 280.29 242.162 280.81 243.412 280.81C244.192 280.81 244.837 280.675 245.347 280.405C245.867 280.135 246.272 279.805 246.562 279.415C246.862 279.025 247.067 278.66 247.177 278.32L247.327 278.86L247.177 279.415C247.127 279.745 247.017 280.125 246.847 280.555C246.677 280.975 246.422 281.385 246.082 281.785C245.742 282.185 245.297 282.52 244.747 282.79C244.207 283.05 243.532 283.18 242.722 283.18ZM247.192 283L247.177 259.66H249.952L249.967 283H247.192ZM261.006 283.225C259.566 283.225 258.301 282.9 257.211 282.25C256.131 281.6 255.286 280.645 254.676 279.385C254.076 278.115 253.776 276.56 253.776 274.72C253.776 272.98 254.096 271.48 254.736 270.22C255.376 268.96 256.246 267.995 257.346 267.325C258.456 266.645 259.696 266.305 261.066 266.305C262.556 266.305 263.841 266.645 264.921 267.325C266.011 267.995 266.851 268.96 267.441 270.22C268.031 271.48 268.326 272.98 268.326 274.72C268.326 276.56 267.996 278.115 267.336 279.385C266.686 280.645 265.806 281.6 264.696 282.25C263.586 282.9 262.356 283.225 261.006 283.225ZM261.066 280.765C262.406 280.765 263.476 280.265 264.276 279.265C265.076 278.265 265.476 276.75 265.476 274.72C265.476 272.78 265.081 271.305 264.291 270.295C263.511 269.275 262.416 268.765 261.006 268.765C259.676 268.765 258.611 269.275 257.811 270.295C257.021 271.305 256.626 272.78 256.626 274.72C256.626 276.68 257.026 278.18 257.826 279.22C258.636 280.25 259.716 280.765 261.066 280.765ZM272.113 283V266.62H274.483L274.783 272.92L274.453 272.065C274.523 271.445 274.658 270.8 274.858 270.13C275.068 269.46 275.363 268.835 275.743 268.255C276.133 267.665 276.628 267.19 277.228 266.83C277.838 266.47 278.583 266.29 279.463 266.29C279.633 266.29 279.793 266.3 279.943 266.32C280.103 266.34 280.258 266.365 280.408 266.395V269.35C280.158 269.27 279.893 269.22 279.613 269.2C279.343 269.17 279.088 269.155 278.848 269.155C278.358 269.155 277.863 269.25 277.363 269.44C276.863 269.63 276.398 269.935 275.968 270.355C275.538 270.765 275.183 271.3 274.903 271.96V283H272.113ZM288.393 283.255C287.263 283.255 286.228 283.085 285.288 282.745C284.358 282.395 283.603 281.855 283.023 281.125C282.443 280.385 282.118 279.435 282.048 278.275H284.808C284.988 279.275 285.383 279.965 285.993 280.345C286.613 280.715 287.398 280.9 288.348 280.9C288.998 280.9 289.583 280.83 290.103 280.69C290.633 280.55 291.053 280.315 291.363 279.985C291.673 279.655 291.828 279.205 291.828 278.635C291.828 278.195 291.733 277.84 291.543 277.57C291.353 277.3 291.088 277.08 290.748 276.91C290.408 276.73 290.008 276.575 289.548 276.445C289.098 276.315 288.608 276.175 288.078 276.025C287.088 275.735 286.173 275.4 285.333 275.02C284.493 274.63 283.818 274.11 283.308 273.46C282.798 272.81 282.543 271.94 282.543 270.85C282.543 269.51 283.053 268.425 284.073 267.595C285.093 266.755 286.433 266.335 288.093 266.335C289.143 266.335 290.088 266.495 290.928 266.815C291.778 267.135 292.468 267.65 292.998 268.36C293.538 269.06 293.868 270 293.988 271.18H291.243C291.143 270.64 290.958 270.185 290.688 269.815C290.428 269.445 290.083 269.165 289.653 268.975C289.223 268.785 288.698 268.69 288.078 268.69C287.558 268.69 287.088 268.765 286.668 268.915C286.248 269.055 285.913 269.28 285.663 269.59C285.413 269.9 285.288 270.31 285.288 270.82C285.288 271.38 285.438 271.83 285.738 272.17C286.038 272.51 286.463 272.795 287.013 273.025C287.563 273.245 288.208 273.465 288.948 273.685C289.518 273.865 290.128 274.055 290.778 274.255C291.428 274.445 292.038 274.7 292.608 275.02C293.188 275.34 293.658 275.77 294.018 276.31C294.388 276.84 294.573 277.535 294.573 278.395C294.573 279.935 294.003 281.13 292.863 281.98C291.723 282.83 290.233 283.255 288.393 283.255Z" fill="white"/>
</svg>
