<svg width="231" height="284" viewBox="0 0 231 284" fill="none" xmlns="http://www.w3.org/2000/svg">
<circle cx="115.012" cy="115.012" r="112.5" fill="#191919" stroke="#A81F25" stroke-width="5"/>
<path d="M126.96 192.359C116.167 194.223 105.105 193.823 94.4759 191.184C83.8465 188.545 73.8819 183.725 65.2148 177.029C56.5478 170.333 49.3676 161.909 44.1302 152.29C38.8929 142.671 35.7127 132.069 34.7917 121.155C33.8707 110.242 35.229 99.2563 38.7803 88.8958C42.3316 78.5354 47.9983 69.0266 55.4206 60.9731C62.843 52.9196 71.8588 46.4975 81.8956 42.1143C91.9325 37.7312 102.771 35.4829 113.723 35.5122" stroke="#A81F25" stroke-width="25"/>
<path d="M86.8941 126C87.6141 125.12 88.3607 124.207 89.1341 123.26C89.9207 122.3 90.7074 121.333 91.4941 120.36C92.2941 119.387 93.0807 118.433 93.8541 117.5C94.6274 116.553 95.3607 115.653 96.0541 114.8C97.0941 113.547 98.0541 112.373 98.9341 111.28C99.8141 110.187 100.521 109.093 101.054 108C101.601 106.893 101.874 105.727 101.874 104.5C101.874 102.953 101.441 101.76 100.574 100.92C99.7074 100.067 98.4807 99.6467 96.8941 99.66C95.7874 99.66 94.7941 99.8667 93.9141 100.28C93.0474 100.693 92.3807 101.393 91.9141 102.38C91.4607 103.367 91.2941 104.727 91.4141 106.46H87.8341C87.6207 104.06 87.8807 102.12 88.6141 100.64C89.3474 99.1467 90.4474 98.0533 91.9141 97.36C93.3807 96.6667 95.1007 96.32 97.0741 96.32C98.8474 96.32 100.367 96.64 101.634 97.28C102.914 97.9067 103.894 98.8133 104.574 100C105.267 101.187 105.607 102.6 105.594 104.24C105.594 105.8 105.341 107.2 104.834 108.44C104.327 109.667 103.654 110.847 102.814 111.98C101.974 113.1 101.054 114.28 100.054 115.52C99.4274 116.293 98.7941 117.073 98.1541 117.86C97.5141 118.633 96.9007 119.38 96.3141 120.1C95.7274 120.807 95.1941 121.447 94.7141 122.02C94.2474 122.58 93.8741 123.04 93.5941 123.4C93.9941 122.973 94.4874 122.72 95.0741 122.64C95.6607 122.547 96.4541 122.5 97.4541 122.5H105.694V126H86.8941ZM118.457 126.6C117.083 126.6 115.783 126.413 114.557 126.04C113.343 125.68 112.277 125.12 111.357 124.36C110.45 123.587 109.75 122.607 109.257 121.42C108.763 120.233 108.557 118.82 108.637 117.18H112.397C112.357 119.087 112.837 120.567 113.837 121.62C114.85 122.673 116.39 123.193 118.457 123.18C119.63 123.167 120.67 122.967 121.577 122.58C122.483 122.193 123.197 121.633 123.717 120.9C124.25 120.153 124.517 119.247 124.517 118.18C124.517 116.193 123.943 114.767 122.797 113.9C121.65 113.033 120.157 112.6 118.317 112.6H115.297V109.28H118.357C119.423 109.28 120.337 109.053 121.097 108.6C121.857 108.133 122.437 107.52 122.837 106.76C123.25 105.987 123.457 105.153 123.457 104.26C123.457 102.793 123.003 101.66 122.097 100.86C121.203 100.06 119.99 99.66 118.457 99.66C116.91 99.66 115.657 100.113 114.697 101.02C113.75 101.913 113.33 103.327 113.437 105.26H109.677C109.65 103.22 109.983 101.54 110.677 100.22C111.37 98.9 112.377 97.92 113.697 97.28C115.03 96.64 116.623 96.32 118.477 96.32C121.29 96.32 123.437 97.04 124.917 98.48C126.397 99.92 127.137 101.8 127.137 104.12C127.137 105.093 126.943 106.06 126.557 107.02C126.183 107.967 125.583 108.793 124.757 109.5C123.93 110.193 122.83 110.647 121.457 110.86C123.683 111.047 125.37 111.767 126.517 113.02C127.663 114.26 128.237 115.973 128.237 118.16C128.237 119.973 127.81 121.513 126.957 122.78C126.103 124.033 124.937 124.987 123.457 125.64C121.99 126.28 120.323 126.6 118.457 126.6ZM143.893 126L143.873 120.1H129.973L142.273 96.92H147.493L147.413 97.02L147.513 116.76H151.253V120.1H147.513L147.533 126H143.893ZM135.153 117.36C135.406 117.173 135.686 117.027 135.993 116.92C136.313 116.813 136.619 116.76 136.913 116.76H145.273C144.699 116.76 144.326 116.533 144.153 116.08C143.979 115.627 143.893 115.153 143.893 114.66L143.873 105.46L144.073 100.34L141.813 105.16L136.433 115.34L135.153 117.36Z" fill="white"/>
<path d="M16.6502 277V255.19H19.5152V277H16.6502ZM24.5147 277V260.62H26.8847L27.1847 266.8L26.9147 265.555C27.0447 264.585 27.3147 263.705 27.7247 262.915C28.1447 262.115 28.7297 261.48 29.4797 261.01C30.2397 260.53 31.1947 260.29 32.3447 260.29C33.8647 260.29 35.0447 260.76 35.8847 261.7C36.7347 262.63 37.1597 264.02 37.1597 265.87V277H34.3697V266.785C34.3697 265.855 34.2647 265.105 34.0547 264.535C33.8547 263.965 33.5297 263.55 33.0797 263.29C32.6397 263.03 32.0497 262.9 31.3097 262.9C30.4197 262.9 29.6347 263.145 28.9547 263.635C28.2847 264.125 27.7347 264.8 27.3047 265.66V277H24.5147ZM47.272 277.18C45.942 277.18 44.792 276.83 43.822 276.13C42.862 275.43 42.122 274.445 41.602 273.175C41.092 271.905 40.837 270.42 40.837 268.72C40.837 266.84 41.152 265.28 41.782 264.04C42.422 262.79 43.242 261.86 44.242 261.25C45.252 260.63 46.317 260.32 47.437 260.32C48.527 260.32 49.382 260.505 50.002 260.875C50.632 261.245 51.092 261.675 51.382 262.165C51.682 262.645 51.862 263.06 51.922 263.41L52.807 263.56L51.727 264.505C51.657 264.295 51.487 264.055 51.217 263.785C50.947 263.505 50.562 263.265 50.062 263.065C49.562 262.855 48.927 262.75 48.157 262.75C46.867 262.75 45.802 263.235 44.962 264.205C44.122 265.165 43.702 266.69 43.702 268.78C43.702 270.72 44.097 272.21 44.887 273.25C45.687 274.29 46.712 274.81 47.962 274.81C48.742 274.81 49.387 274.675 49.897 274.405C50.417 274.135 50.822 273.805 51.112 273.415C51.412 273.025 51.617 272.66 51.727 272.32L51.877 272.86L51.727 273.415C51.677 273.745 51.567 274.125 51.397 274.555C51.227 274.975 50.972 275.385 50.632 275.785C50.292 276.185 49.847 276.52 49.297 276.79C48.757 277.05 48.082 277.18 47.272 277.18ZM51.742 277L51.727 253.66H54.502L54.517 277H51.742ZM59.6037 277V260.725H62.4237L62.3787 277H59.6037ZM61.0287 258.1C60.4787 258.1 60.0087 257.91 59.6187 257.53C59.2387 257.15 59.0487 256.66 59.0487 256.06C59.0487 255.47 59.2387 254.985 59.6187 254.605C60.0087 254.225 60.4787 254.035 61.0287 254.035C61.5687 254.035 62.0287 254.225 62.4087 254.605C62.7987 254.985 62.9937 255.47 62.9937 256.06C62.9937 256.66 62.7987 257.15 62.4087 257.53C62.0187 257.91 61.5587 258.1 61.0287 258.1ZM71.3374 277.18C70.2974 277.18 69.3974 276.985 68.6374 276.595C67.8874 276.195 67.3074 275.655 66.8974 274.975C66.4974 274.295 66.2974 273.525 66.2974 272.665C66.2974 271.775 66.4724 271.025 66.8224 270.415C67.1724 269.795 67.6774 269.29 68.3374 268.9C68.9974 268.5 69.7974 268.2 70.7374 268C71.3574 267.86 72.0124 267.75 72.7024 267.67C73.4024 267.59 74.0724 267.525 74.7124 267.475C75.3524 267.425 75.8974 267.39 76.3474 267.37V266.455C76.3474 265.145 76.0724 264.205 75.5224 263.635C74.9724 263.055 74.1174 262.765 72.9574 262.765C72.2374 262.765 71.6024 262.86 71.0524 263.05C70.5124 263.24 70.0924 263.595 69.7924 264.115C69.4924 264.625 69.3474 265.375 69.3574 266.365H66.7474C66.6274 265.015 66.8174 263.895 67.3174 263.005C67.8174 262.105 68.5674 261.435 69.5674 260.995C70.5674 260.545 71.7524 260.32 73.1224 260.32C73.9024 260.32 74.6474 260.415 75.3574 260.605C76.0674 260.785 76.6974 261.095 77.2474 261.535C77.7974 261.965 78.2324 262.555 78.5524 263.305C78.8724 264.055 79.0324 264.995 79.0324 266.125V277H76.3174L76.3474 273.445C76.0974 274.575 75.5324 275.48 74.6524 276.16C73.7824 276.84 72.6774 277.18 71.3374 277.18ZM71.9824 274.975C72.7124 274.975 73.3824 274.84 73.9924 274.57C74.6124 274.3 75.1324 273.955 75.5524 273.535C75.9724 273.115 76.2374 272.685 76.3474 272.245V269.065C75.7674 269.105 75.1224 269.175 74.4124 269.275C73.7024 269.365 73.0774 269.475 72.5374 269.605C71.4574 269.855 70.6524 270.19 70.1224 270.61C69.6024 271.03 69.3424 271.635 69.3424 272.425C69.3424 272.895 69.4424 273.325 69.6424 273.715C69.8524 274.095 70.1524 274.4 70.5424 274.63C70.9324 274.85 71.4124 274.965 71.9824 274.975ZM83.753 277V260.62H86.123L86.423 266.8L86.153 265.555C86.283 264.585 86.553 263.705 86.963 262.915C87.383 262.115 87.968 261.48 88.718 261.01C89.478 260.53 90.433 260.29 91.583 260.29C93.103 260.29 94.283 260.76 95.123 261.7C95.973 262.63 96.398 264.02 96.398 265.87V277H93.608V266.785C93.608 265.855 93.503 265.105 93.293 264.535C93.093 263.965 92.768 263.55 92.318 263.29C91.878 263.03 91.288 262.9 90.548 262.9C89.658 262.9 88.873 263.145 88.193 263.635C87.523 264.125 86.973 264.8 86.543 265.66V277H83.753ZM115.186 277.315C113.326 277.315 111.661 276.88 110.191 276.01C108.731 275.14 107.581 273.87 106.741 272.2C105.901 270.52 105.481 268.47 105.481 266.05C105.481 263.76 105.891 261.775 106.711 260.095C107.531 258.405 108.676 257.1 110.146 256.18C111.616 255.25 113.321 254.785 115.261 254.785C116.691 254.785 118.006 255.065 119.206 255.625C120.416 256.185 121.391 257.015 122.131 258.115C122.881 259.205 123.281 260.555 123.331 262.165H120.466C120.406 261.095 120.126 260.21 119.626 259.51C119.136 258.8 118.501 258.27 117.721 257.92C116.941 257.56 116.081 257.38 115.141 257.38C113.851 257.38 112.691 257.725 111.661 258.415C110.641 259.095 109.836 260.08 109.246 261.37C108.656 262.66 108.361 264.215 108.361 266.035C108.361 268.105 108.671 269.78 109.291 271.06C109.911 272.33 110.741 273.26 111.781 273.85C112.821 274.43 113.971 274.72 115.231 274.72C116.381 274.72 117.331 274.515 118.081 274.105C118.841 273.685 119.421 273.135 119.821 272.455C120.221 271.775 120.446 271.04 120.496 270.25H123.331C123.241 271.7 122.856 272.955 122.176 274.015C121.506 275.075 120.581 275.89 119.401 276.46C118.221 277.03 116.816 277.315 115.186 277.315ZM132.821 277.225C131.381 277.225 130.116 276.9 129.026 276.25C127.946 275.6 127.101 274.645 126.491 273.385C125.891 272.115 125.591 270.56 125.591 268.72C125.591 266.98 125.911 265.48 126.551 264.22C127.191 262.96 128.061 261.995 129.161 261.325C130.271 260.645 131.511 260.305 132.881 260.305C134.371 260.305 135.656 260.645 136.736 261.325C137.826 261.995 138.666 262.96 139.256 264.22C139.846 265.48 140.141 266.98 140.141 268.72C140.141 270.56 139.811 272.115 139.151 273.385C138.501 274.645 137.621 275.6 136.511 276.25C135.401 276.9 134.171 277.225 132.821 277.225ZM132.881 274.765C134.221 274.765 135.291 274.265 136.091 273.265C136.891 272.265 137.291 270.75 137.291 268.72C137.291 266.78 136.896 265.305 136.106 264.295C135.326 263.275 134.231 262.765 132.821 262.765C131.491 262.765 130.426 263.275 129.626 264.295C128.836 265.305 128.441 266.78 128.441 268.72C128.441 270.68 128.841 272.18 129.641 273.22C130.451 274.25 131.531 274.765 132.881 274.765ZM143.959 277V253.675H146.749V277H143.959ZM151.722 277V253.675H154.512V277H151.722ZM165.74 277.225C164.25 277.225 162.94 276.9 161.81 276.25C160.69 275.6 159.82 274.645 159.2 273.385C158.58 272.115 158.27 270.565 158.27 268.735C158.27 266.975 158.59 265.465 159.23 264.205C159.87 262.945 160.75 261.98 161.87 261.31C162.99 260.64 164.265 260.305 165.695 260.305C167.115 260.305 168.33 260.61 169.34 261.22C170.36 261.83 171.145 262.705 171.695 263.845C172.245 264.975 172.515 266.33 172.505 267.91C172.505 268.23 172.495 268.495 172.475 268.705C172.455 268.915 172.44 269.135 172.43 269.365H161.06C161.13 271.165 161.58 272.53 162.41 273.46C163.25 274.38 164.32 274.84 165.62 274.84C166.72 274.84 167.57 274.61 168.17 274.15C168.78 273.68 169.165 273.08 169.325 272.35H172.055C171.985 273.39 171.665 274.275 171.095 275.005C170.535 275.735 169.795 276.29 168.875 276.67C167.955 277.04 166.91 277.225 165.74 277.225ZM162.545 267.265H169.7C169.68 265.865 169.335 264.765 168.665 263.965C167.995 263.165 166.97 262.765 165.59 262.765C164.14 262.765 163.04 263.26 162.29 264.25C161.54 265.23 161.13 266.585 161.06 268.315C161.14 267.905 161.3 267.63 161.54 267.49C161.79 267.34 162.125 267.265 162.545 267.265ZM182.319 283.675C181.079 283.675 179.954 283.46 178.944 283.03C177.934 282.6 177.149 281.94 176.589 281.05C176.029 280.17 175.804 279.055 175.914 277.705H178.614C178.584 278.455 178.679 279.095 178.899 279.625C179.119 280.155 179.509 280.56 180.069 280.84C180.629 281.12 181.399 281.26 182.379 281.26C183.339 281.26 184.074 281.12 184.584 280.84C185.094 280.56 185.444 280.125 185.634 279.535C185.834 278.945 185.934 278.185 185.934 277.255V272.86C185.844 273.31 185.639 273.795 185.319 274.315C185.009 274.835 184.539 275.28 183.909 275.65C183.289 276.02 182.459 276.205 181.419 276.205C180.469 276.205 179.609 276.005 178.839 275.605C178.069 275.195 177.404 274.635 176.844 273.925C176.294 273.215 175.869 272.39 175.569 271.45C175.279 270.51 175.134 269.51 175.134 268.45C175.134 266.67 175.434 265.18 176.034 263.98C176.634 262.77 177.419 261.86 178.389 261.25C179.359 260.63 180.399 260.32 181.509 260.32C182.419 260.32 183.164 260.445 183.744 260.695C184.334 260.935 184.804 261.235 185.154 261.595C185.504 261.955 185.764 262.305 185.934 262.645V260.635H188.679V277.165C188.679 278.745 188.404 280.01 187.854 280.96C187.304 281.91 186.549 282.595 185.589 283.015C184.639 283.445 183.549 283.665 182.319 283.675ZM182.274 273.88C183.024 273.88 183.649 273.76 184.149 273.52C184.649 273.27 185.044 272.965 185.334 272.605C185.624 272.245 185.824 271.9 185.934 271.57V264.61C185.844 264.37 185.649 264.105 185.349 263.815C185.049 263.525 184.649 263.275 184.149 263.065C183.649 262.855 183.039 262.75 182.319 262.75C181.039 262.75 180.004 263.21 179.214 264.13C178.424 265.04 178.029 266.435 178.029 268.315C178.029 270.135 178.424 271.52 179.214 272.47C180.014 273.41 181.034 273.88 182.274 273.88ZM199.929 277.225C198.439 277.225 197.129 276.9 195.999 276.25C194.879 275.6 194.009 274.645 193.389 273.385C192.769 272.115 192.459 270.565 192.459 268.735C192.459 266.975 192.779 265.465 193.419 264.205C194.059 262.945 194.939 261.98 196.059 261.31C197.179 260.64 198.454 260.305 199.884 260.305C201.304 260.305 202.519 260.61 203.529 261.22C204.549 261.83 205.334 262.705 205.884 263.845C206.434 264.975 206.704 266.33 206.694 267.91C206.694 268.23 206.684 268.495 206.664 268.705C206.644 268.915 206.629 269.135 206.619 269.365H195.249C195.319 271.165 195.769 272.53 196.599 273.46C197.439 274.38 198.509 274.84 199.809 274.84C200.909 274.84 201.759 274.61 202.359 274.15C202.969 273.68 203.354 273.08 203.514 272.35H206.244C206.174 273.39 205.854 274.275 205.284 275.005C204.724 275.735 203.984 276.29 203.064 276.67C202.144 277.04 201.099 277.225 199.929 277.225ZM196.734 267.265H203.889C203.869 265.865 203.524 264.765 202.854 263.965C202.184 263.165 201.159 262.765 199.779 262.765C198.329 262.765 197.229 263.26 196.479 264.25C195.729 265.23 195.319 266.585 195.249 268.315C195.329 267.905 195.489 267.63 195.729 267.49C195.979 267.34 196.314 267.265 196.734 267.265ZM215.433 277.255C214.303 277.255 213.268 277.085 212.328 276.745C211.398 276.395 210.643 275.855 210.063 275.125C209.483 274.385 209.158 273.435 209.088 272.275H211.848C212.028 273.275 212.423 273.965 213.033 274.345C213.653 274.715 214.438 274.9 215.388 274.9C216.038 274.9 216.623 274.83 217.143 274.69C217.673 274.55 218.093 274.315 218.403 273.985C218.713 273.655 218.868 273.205 218.868 272.635C218.868 272.195 218.773 271.84 218.583 271.57C218.393 271.3 218.128 271.08 217.788 270.91C217.448 270.73 217.048 270.575 216.588 270.445C216.138 270.315 215.648 270.175 215.118 270.025C214.128 269.735 213.213 269.4 212.373 269.02C211.533 268.63 210.858 268.11 210.348 267.46C209.838 266.81 209.583 265.94 209.583 264.85C209.583 263.51 210.093 262.425 211.113 261.595C212.133 260.755 213.473 260.335 215.133 260.335C216.183 260.335 217.128 260.495 217.968 260.815C218.818 261.135 219.508 261.65 220.038 262.36C220.578 263.06 220.908 264 221.028 265.18H218.283C218.183 264.64 217.998 264.185 217.728 263.815C217.468 263.445 217.123 263.165 216.693 262.975C216.263 262.785 215.738 262.69 215.118 262.69C214.598 262.69 214.128 262.765 213.708 262.915C213.288 263.055 212.953 263.28 212.703 263.59C212.453 263.9 212.328 264.31 212.328 264.82C212.328 265.38 212.478 265.83 212.778 266.17C213.078 266.51 213.503 266.795 214.053 267.025C214.603 267.245 215.248 267.465 215.988 267.685C216.558 267.865 217.168 268.055 217.818 268.255C218.468 268.445 219.078 268.7 219.648 269.02C220.228 269.34 220.698 269.77 221.058 270.31C221.428 270.84 221.613 271.535 221.613 272.395C221.613 273.935 221.043 275.13 219.903 275.98C218.763 276.83 217.273 277.255 215.433 277.255Z" fill="white"/>
</svg>
