<svg width="297" height="284" viewBox="0 0 297 284" fill="none" xmlns="http://www.w3.org/2000/svg">
<circle cx="148" cy="115" r="112.5" fill="#191919" stroke="#A81F25" stroke-width="5"/>
<path d="M226.454 117.211C225.917 132.826 220.763 147.932 211.642 160.618C202.52 173.304 189.842 183 175.21 188.481C160.578 193.961 144.649 194.98 129.438 191.408C114.228 187.835 100.418 179.833 89.7548 168.412C79.092 156.991 72.0554 142.665 69.5348 127.245C67.0142 111.825 69.1227 96.0033 75.5938 81.7816C82.0649 67.5599 92.6079 55.5764 105.89 47.3467C119.171 39.1169 134.595 35.0104 150.211 35.5465" stroke="#A81F25" stroke-width="25"/>
<path d="M122.518 126C123.224 125.4 124.024 124.687 124.918 123.86C125.824 123.033 126.731 122.113 127.638 121.1C128.544 120.073 129.384 118.96 130.158 117.76C130.944 116.56 131.584 115.28 132.078 113.92C132.584 112.56 132.864 111.133 132.918 109.64L133.198 109.66C132.971 110.633 132.658 111.507 132.258 112.28C131.858 113.053 131.364 113.713 130.778 114.26C130.204 114.807 129.531 115.227 128.758 115.52C127.984 115.8 127.104 115.94 126.118 115.94C124.438 115.94 122.938 115.527 121.618 114.7C120.311 113.873 119.284 112.727 118.538 111.26C117.791 109.78 117.418 108.087 117.418 106.18C117.418 104.567 117.678 103.147 118.198 101.92C118.731 100.693 119.444 99.6667 120.338 98.84C121.244 98 122.271 97.3733 123.418 96.96C124.578 96.5333 125.784 96.32 127.038 96.32C128.838 96.32 130.464 96.74 131.918 97.58C133.384 98.42 134.544 99.72 135.398 101.48C136.251 103.227 136.678 105.473 136.678 108.22C136.678 110.433 136.378 112.48 135.778 114.36C135.178 116.227 134.418 117.913 133.498 119.42C132.591 120.913 131.651 122.213 130.678 123.32C129.718 124.427 128.864 125.32 128.118 126H122.518ZM126.838 112.54C127.838 112.54 128.711 112.393 129.458 112.1C130.204 111.793 130.838 111.393 131.358 110.9C131.891 110.407 132.331 109.873 132.678 109.3C132.744 109.193 132.784 108.96 132.798 108.6C132.811 108.227 132.818 107.84 132.818 107.44C132.818 105.933 132.598 104.607 132.158 103.46C131.718 102.3 131.064 101.393 130.198 100.74C129.331 100.073 128.251 99.74 126.958 99.74C125.891 99.74 124.918 99.9933 124.038 100.5C123.171 100.993 122.484 101.72 121.978 102.68C121.471 103.627 121.218 104.773 121.218 106.12C121.218 108.013 121.691 109.56 122.638 110.76C123.598 111.947 124.998 112.54 126.838 112.54ZM150.852 126.6C148.986 126.6 147.299 126.287 145.792 125.66C144.286 125.02 143.092 124.08 142.212 122.84C141.346 121.587 140.912 120.053 140.912 118.24C140.912 116.027 141.492 114.3 142.652 113.06C143.812 111.82 145.526 111.087 147.792 110.86C146.446 110.687 145.346 110.26 144.492 109.58C143.639 108.9 143.012 108.093 142.612 107.16C142.212 106.227 142.012 105.287 142.012 104.34C142.012 101.847 142.759 99.8867 144.252 98.46C145.759 97.0333 147.959 96.32 150.852 96.32C153.759 96.32 155.959 97.04 157.452 98.48C158.946 99.92 159.692 101.873 159.692 104.34C159.692 105.287 159.492 106.233 159.092 107.18C158.692 108.113 158.066 108.92 157.212 109.6C156.372 110.28 155.286 110.713 153.952 110.9C156.179 111.113 157.872 111.847 159.032 113.1C160.206 114.34 160.792 116.053 160.792 118.24C160.792 120.053 160.352 121.587 159.472 122.84C158.592 124.08 157.399 125.02 155.892 125.66C154.399 126.287 152.719 126.6 150.852 126.6ZM150.852 123.18C152.639 123.18 154.119 122.747 155.292 121.88C156.479 121.013 157.072 119.767 157.072 118.14C157.072 116.273 156.492 114.887 155.332 113.98C154.172 113.073 152.679 112.62 150.852 112.62C149.039 112.62 147.552 113.067 146.392 113.96C145.232 114.853 144.652 116.247 144.652 118.14C144.652 119.767 145.232 121.013 146.392 121.88C147.552 122.747 149.039 123.18 150.852 123.18ZM150.852 109.26C151.919 109.26 152.832 109.033 153.592 108.58C154.366 108.113 154.959 107.507 155.372 106.76C155.786 106.013 155.992 105.2 155.992 104.32C155.992 102.827 155.539 101.68 154.632 100.88C153.726 100.067 152.466 99.66 150.852 99.66C149.239 99.66 147.979 100.067 147.072 100.88C146.166 101.68 145.712 102.827 145.712 104.32C145.712 105.2 145.892 106.013 146.252 106.76C146.626 107.507 147.192 108.113 147.952 108.58C148.712 109.033 149.679 109.26 150.852 109.26ZM167.196 126L176.076 102.98C176.303 102.38 176.596 101.873 176.956 101.46C177.316 101.033 177.75 100.713 178.256 100.5C178.776 100.273 179.376 100.16 180.056 100.16L180.356 100.46H163.216V96.92H180.136H182.056L171.336 126H167.196Z" fill="white"/>
<path d="M0.871914 277V255.19H3.73691V277H0.871914ZM8.73637 277V260.62H11.1064L11.4064 266.8L11.1364 265.555C11.2664 264.585 11.5364 263.705 11.9464 262.915C12.3664 262.115 12.9514 261.48 13.7014 261.01C14.4614 260.53 15.4164 260.29 16.5664 260.29C18.0864 260.29 19.2664 260.76 20.1064 261.7C20.9564 262.63 21.3814 264.02 21.3814 265.87V277H18.5914V266.785C18.5914 265.855 18.4864 265.105 18.2764 264.535C18.0764 263.965 17.7514 263.55 17.3014 263.29C16.8614 263.03 16.2714 262.9 15.5314 262.9C14.6414 262.9 13.8564 263.145 13.1764 263.635C12.5064 264.125 11.9564 264.8 11.5264 265.66V277H8.73637ZM30.4557 277.225C29.1857 277.225 28.2157 276.9 27.5457 276.25C26.8857 275.59 26.5557 274.655 26.5557 273.445V264.565C26.5557 264.245 26.6207 263.95 26.7507 263.68C26.8807 263.4 27.0707 263.22 27.3207 263.14L26.5557 261.28V260.77L27.2307 255.88H29.3157V272.98C29.3157 273.62 29.4657 274.055 29.7657 274.285C30.0657 274.505 30.5807 274.615 31.3107 274.615C31.8407 274.615 32.2907 274.615 32.6607 274.615C33.0307 274.605 33.4157 274.585 33.8157 274.555V277.015C33.2657 277.115 32.6957 277.175 32.1057 277.195C31.5257 277.215 30.9757 277.225 30.4557 277.225ZM24.1707 263.14V260.62H33.6807V263.14H24.1707ZM43.1743 277.225C41.6843 277.225 40.3743 276.9 39.2443 276.25C38.1243 275.6 37.2543 274.645 36.6343 273.385C36.0143 272.115 35.7043 270.565 35.7043 268.735C35.7043 266.975 36.0243 265.465 36.6643 264.205C37.3043 262.945 38.1843 261.98 39.3043 261.31C40.4243 260.64 41.6993 260.305 43.1293 260.305C44.5493 260.305 45.7643 260.61 46.7743 261.22C47.7943 261.83 48.5793 262.705 49.1293 263.845C49.6793 264.975 49.9493 266.33 49.9393 267.91C49.9393 268.23 49.9293 268.495 49.9093 268.705C49.8893 268.915 49.8743 269.135 49.8643 269.365H38.4943C38.5643 271.165 39.0143 272.53 39.8443 273.46C40.6843 274.38 41.7543 274.84 43.0543 274.84C44.1543 274.84 45.0043 274.61 45.6043 274.15C46.2143 273.68 46.5993 273.08 46.7593 272.35H49.4893C49.4193 273.39 49.0993 274.275 48.5293 275.005C47.9693 275.735 47.2293 276.29 46.3093 276.67C45.3893 277.04 44.3443 277.225 43.1743 277.225ZM39.9793 267.265H47.1343C47.1143 265.865 46.7693 264.765 46.0993 263.965C45.4293 263.165 44.4043 262.765 43.0243 262.765C41.5743 262.765 40.4743 263.26 39.7243 264.25C38.9743 265.23 38.5643 266.585 38.4943 268.315C38.5743 267.905 38.7343 267.63 38.9743 267.49C39.2243 267.34 39.5593 267.265 39.9793 267.265ZM53.5899 277V260.62H55.9599L56.2599 266.92L55.9299 266.065C55.9999 265.445 56.1349 264.8 56.3349 264.13C56.5449 263.46 56.8399 262.835 57.2199 262.255C57.6099 261.665 58.1049 261.19 58.7049 260.83C59.3149 260.47 60.0599 260.29 60.9399 260.29C61.1099 260.29 61.2699 260.3 61.4199 260.32C61.5799 260.34 61.7349 260.365 61.8849 260.395V263.35C61.6349 263.27 61.3699 263.22 61.0899 263.2C60.8199 263.17 60.5649 263.155 60.3249 263.155C59.8349 263.155 59.3399 263.25 58.8399 263.44C58.3399 263.63 57.8749 263.935 57.4449 264.355C57.0149 264.765 56.6599 265.3 56.3799 265.96V277H53.5899ZM64.6055 277V260.62H66.9755L67.2755 266.8L67.0055 265.555C67.1355 264.585 67.4055 263.705 67.8155 262.915C68.2355 262.115 68.8205 261.48 69.5705 261.01C70.3305 260.53 71.2855 260.29 72.4355 260.29C73.9555 260.29 75.1355 260.76 75.9755 261.7C76.8255 262.63 77.2505 264.02 77.2505 265.87V277H74.4605V266.785C74.4605 265.855 74.3555 265.105 74.1455 264.535C73.9455 263.965 73.6205 263.55 73.1705 263.29C72.7305 263.03 72.1405 262.9 71.4005 262.9C70.5105 262.9 69.7255 263.145 69.0455 263.635C68.3755 264.125 67.8255 264.8 67.3955 265.66V277H64.6055ZM86.0279 277.18C84.9879 277.18 84.0879 276.985 83.3279 276.595C82.5779 276.195 81.9979 275.655 81.5879 274.975C81.1879 274.295 80.9879 273.525 80.9879 272.665C80.9879 271.775 81.1629 271.025 81.5129 270.415C81.8629 269.795 82.3679 269.29 83.0279 268.9C83.6879 268.5 84.4879 268.2 85.4279 268C86.0479 267.86 86.7029 267.75 87.3929 267.67C88.0929 267.59 88.7629 267.525 89.4029 267.475C90.0429 267.425 90.5879 267.39 91.0379 267.37V266.455C91.0379 265.145 90.7629 264.205 90.2129 263.635C89.6629 263.055 88.8079 262.765 87.6479 262.765C86.9279 262.765 86.2929 262.86 85.7429 263.05C85.2029 263.24 84.7829 263.595 84.4829 264.115C84.1829 264.625 84.0379 265.375 84.0479 266.365H81.4379C81.3179 265.015 81.5079 263.895 82.0079 263.005C82.5079 262.105 83.2579 261.435 84.2579 260.995C85.2579 260.545 86.4429 260.32 87.8129 260.32C88.5929 260.32 89.3379 260.415 90.0479 260.605C90.7579 260.785 91.3879 261.095 91.9379 261.535C92.4879 261.965 92.9229 262.555 93.2429 263.305C93.5629 264.055 93.7229 264.995 93.7229 266.125V277H91.0079L91.0379 273.445C90.7879 274.575 90.2229 275.48 89.3429 276.16C88.4729 276.84 87.3679 277.18 86.0279 277.18ZM86.6729 274.975C87.4029 274.975 88.0729 274.84 88.6829 274.57C89.3029 274.3 89.8229 273.955 90.2429 273.535C90.6629 273.115 90.9279 272.685 91.0379 272.245V269.065C90.4579 269.105 89.8129 269.175 89.1029 269.275C88.3929 269.365 87.7679 269.475 87.2279 269.605C86.1479 269.855 85.3429 270.19 84.8129 270.61C84.2929 271.03 84.0329 271.635 84.0329 272.425C84.0329 272.895 84.1329 273.325 84.3329 273.715C84.5429 274.095 84.8429 274.4 85.2329 274.63C85.6229 274.85 86.1029 274.965 86.6729 274.975ZM102.76 277.225C101.49 277.225 100.52 276.9 99.8504 276.25C99.1904 275.59 98.8604 274.655 98.8604 273.445V264.565C98.8604 264.245 98.9254 263.95 99.0554 263.68C99.1854 263.4 99.3754 263.22 99.6254 263.14L98.8604 261.28V260.77L99.5354 255.88H101.62V272.98C101.62 273.62 101.77 274.055 102.07 274.285C102.37 274.505 102.885 274.615 103.615 274.615C104.145 274.615 104.595 274.615 104.965 274.615C105.335 274.605 105.72 274.585 106.12 274.555V277.015C105.57 277.115 105 277.175 104.41 277.195C103.83 277.215 103.28 277.225 102.76 277.225ZM96.4754 263.14V260.62H105.985V263.14H96.4754ZM109.304 277V260.725H112.124L112.079 277H109.304ZM110.729 258.1C110.179 258.1 109.709 257.91 109.319 257.53C108.939 257.15 108.749 256.66 108.749 256.06C108.749 255.47 108.939 254.985 109.319 254.605C109.709 254.225 110.179 254.035 110.729 254.035C111.269 254.035 111.729 254.225 112.109 254.605C112.499 254.985 112.694 255.47 112.694 256.06C112.694 256.66 112.499 257.15 112.109 257.53C111.719 257.91 111.259 258.1 110.729 258.1ZM123.196 277.225C121.756 277.225 120.491 276.9 119.401 276.25C118.321 275.6 117.476 274.645 116.866 273.385C116.266 272.115 115.966 270.56 115.966 268.72C115.966 266.98 116.286 265.48 116.926 264.22C117.566 262.96 118.436 261.995 119.536 261.325C120.646 260.645 121.886 260.305 123.256 260.305C124.746 260.305 126.031 260.645 127.111 261.325C128.201 261.995 129.041 262.96 129.631 264.22C130.221 265.48 130.516 266.98 130.516 268.72C130.516 270.56 130.186 272.115 129.526 273.385C128.876 274.645 127.996 275.6 126.886 276.25C125.776 276.9 124.546 277.225 123.196 277.225ZM123.256 274.765C124.596 274.765 125.666 274.265 126.466 273.265C127.266 272.265 127.666 270.75 127.666 268.72C127.666 266.78 127.271 265.305 126.481 264.295C125.701 263.275 124.606 262.765 123.196 262.765C121.866 262.765 120.801 263.275 120.001 264.295C119.211 265.305 118.816 266.78 118.816 268.72C118.816 270.68 119.216 272.18 120.016 273.22C120.826 274.25 121.906 274.765 123.256 274.765ZM134.303 277V260.62H136.673L136.973 266.8L136.703 265.555C136.833 264.585 137.103 263.705 137.513 262.915C137.933 262.115 138.518 261.48 139.268 261.01C140.028 260.53 140.983 260.29 142.133 260.29C143.653 260.29 144.833 260.76 145.673 261.7C146.523 262.63 146.948 264.02 146.948 265.87V277H144.158V266.785C144.158 265.855 144.053 265.105 143.843 264.535C143.643 263.965 143.318 263.55 142.868 263.29C142.428 263.03 141.838 262.9 141.098 262.9C140.208 262.9 139.423 263.145 138.743 263.635C138.073 264.125 137.523 264.8 137.093 265.66V277H134.303ZM155.725 277.18C154.685 277.18 153.785 276.985 153.025 276.595C152.275 276.195 151.695 275.655 151.285 274.975C150.885 274.295 150.685 273.525 150.685 272.665C150.685 271.775 150.86 271.025 151.21 270.415C151.56 269.795 152.065 269.29 152.725 268.9C153.385 268.5 154.185 268.2 155.125 268C155.745 267.86 156.4 267.75 157.09 267.67C157.79 267.59 158.46 267.525 159.1 267.475C159.74 267.425 160.285 267.39 160.735 267.37V266.455C160.735 265.145 160.46 264.205 159.91 263.635C159.36 263.055 158.505 262.765 157.345 262.765C156.625 262.765 155.99 262.86 155.44 263.05C154.9 263.24 154.48 263.595 154.18 264.115C153.88 264.625 153.735 265.375 153.745 266.365H151.135C151.015 265.015 151.205 263.895 151.705 263.005C152.205 262.105 152.955 261.435 153.955 260.995C154.955 260.545 156.14 260.32 157.51 260.32C158.29 260.32 159.035 260.415 159.745 260.605C160.455 260.785 161.085 261.095 161.635 261.535C162.185 261.965 162.62 262.555 162.94 263.305C163.26 264.055 163.42 264.995 163.42 266.125V277H160.705L160.735 273.445C160.485 274.575 159.92 275.48 159.04 276.16C158.17 276.84 157.065 277.18 155.725 277.18ZM156.37 274.975C157.1 274.975 157.77 274.84 158.38 274.57C159 274.3 159.52 273.955 159.94 273.535C160.36 273.115 160.625 272.685 160.735 272.245V269.065C160.155 269.105 159.51 269.175 158.8 269.275C158.09 269.365 157.465 269.475 156.925 269.605C155.845 269.855 155.04 270.19 154.51 270.61C153.99 271.03 153.73 271.635 153.73 272.425C153.73 272.895 153.83 273.325 154.03 273.715C154.24 274.095 154.54 274.4 154.93 274.63C155.32 274.85 155.8 274.965 156.37 274.975ZM168.2 277V253.675H170.99V277H168.2ZM189.964 277.315C188.104 277.315 186.439 276.88 184.969 276.01C183.509 275.14 182.359 273.87 181.519 272.2C180.679 270.52 180.259 268.47 180.259 266.05C180.259 263.76 180.669 261.775 181.489 260.095C182.309 258.405 183.454 257.1 184.924 256.18C186.394 255.25 188.099 254.785 190.039 254.785C191.469 254.785 192.784 255.065 193.984 255.625C195.194 256.185 196.169 257.015 196.909 258.115C197.659 259.205 198.059 260.555 198.109 262.165H195.244C195.184 261.095 194.904 260.21 194.404 259.51C193.914 258.8 193.279 258.27 192.499 257.92C191.719 257.56 190.859 257.38 189.919 257.38C188.629 257.38 187.469 257.725 186.439 258.415C185.419 259.095 184.614 260.08 184.024 261.37C183.434 262.66 183.139 264.215 183.139 266.035C183.139 268.105 183.449 269.78 184.069 271.06C184.689 272.33 185.519 273.26 186.559 273.85C187.599 274.43 188.749 274.72 190.009 274.72C191.159 274.72 192.109 274.515 192.859 274.105C193.619 273.685 194.199 273.135 194.599 272.455C194.999 271.775 195.224 271.04 195.274 270.25H198.109C198.019 271.7 197.634 272.955 196.954 274.015C196.284 275.075 195.359 275.89 194.179 276.46C192.999 277.03 191.594 277.315 189.964 277.315ZM207.6 277.225C206.16 277.225 204.895 276.9 203.805 276.25C202.725 275.6 201.88 274.645 201.27 273.385C200.67 272.115 200.37 270.56 200.37 268.72C200.37 266.98 200.69 265.48 201.33 264.22C201.97 262.96 202.84 261.995 203.94 261.325C205.05 260.645 206.29 260.305 207.66 260.305C209.15 260.305 210.435 260.645 211.515 261.325C212.605 261.995 213.445 262.96 214.035 264.22C214.625 265.48 214.92 266.98 214.92 268.72C214.92 270.56 214.59 272.115 213.93 273.385C213.28 274.645 212.4 275.6 211.29 276.25C210.18 276.9 208.95 277.225 207.6 277.225ZM207.66 274.765C209 274.765 210.07 274.265 210.87 273.265C211.67 272.265 212.07 270.75 212.07 268.72C212.07 266.78 211.675 265.305 210.885 264.295C210.105 263.275 209.01 262.765 207.6 262.765C206.27 262.765 205.205 263.275 204.405 264.295C203.615 265.305 203.22 266.78 203.22 268.72C203.22 270.68 203.62 272.18 204.42 273.22C205.23 274.25 206.31 274.765 207.66 274.765ZM218.737 277V253.675H221.527V277H218.737ZM226.501 277V253.675H229.291V277H226.501ZM240.518 277.225C239.028 277.225 237.718 276.9 236.588 276.25C235.468 275.6 234.598 274.645 233.978 273.385C233.358 272.115 233.048 270.565 233.048 268.735C233.048 266.975 233.368 265.465 234.008 264.205C234.648 262.945 235.528 261.98 236.648 261.31C237.768 260.64 239.043 260.305 240.473 260.305C241.893 260.305 243.108 260.61 244.118 261.22C245.138 261.83 245.923 262.705 246.473 263.845C247.023 264.975 247.293 266.33 247.283 267.91C247.283 268.23 247.273 268.495 247.253 268.705C247.233 268.915 247.218 269.135 247.208 269.365H235.838C235.908 271.165 236.358 272.53 237.188 273.46C238.028 274.38 239.098 274.84 240.398 274.84C241.498 274.84 242.348 274.61 242.948 274.15C243.558 273.68 243.943 273.08 244.103 272.35H246.833C246.763 273.39 246.443 274.275 245.873 275.005C245.313 275.735 244.573 276.29 243.653 276.67C242.733 277.04 241.688 277.225 240.518 277.225ZM237.323 267.265H244.478C244.458 265.865 244.113 264.765 243.443 263.965C242.773 263.165 241.748 262.765 240.368 262.765C238.918 262.765 237.818 263.26 237.068 264.25C236.318 265.23 235.908 266.585 235.838 268.315C235.918 267.905 236.078 267.63 236.318 267.49C236.568 267.34 236.903 267.265 237.323 267.265ZM257.097 283.675C255.857 283.675 254.732 283.46 253.722 283.03C252.712 282.6 251.927 281.94 251.367 281.05C250.807 280.17 250.582 279.055 250.692 277.705H253.392C253.362 278.455 253.457 279.095 253.677 279.625C253.897 280.155 254.287 280.56 254.847 280.84C255.407 281.12 256.177 281.26 257.157 281.26C258.117 281.26 258.852 281.12 259.362 280.84C259.872 280.56 260.222 280.125 260.412 279.535C260.612 278.945 260.712 278.185 260.712 277.255V272.86C260.622 273.31 260.417 273.795 260.097 274.315C259.787 274.835 259.317 275.28 258.687 275.65C258.067 276.02 257.237 276.205 256.197 276.205C255.247 276.205 254.387 276.005 253.617 275.605C252.847 275.195 252.182 274.635 251.622 273.925C251.072 273.215 250.647 272.39 250.347 271.45C250.057 270.51 249.912 269.51 249.912 268.45C249.912 266.67 250.212 265.18 250.812 263.98C251.412 262.77 252.197 261.86 253.167 261.25C254.137 260.63 255.177 260.32 256.287 260.32C257.197 260.32 257.942 260.445 258.522 260.695C259.112 260.935 259.582 261.235 259.932 261.595C260.282 261.955 260.542 262.305 260.712 262.645V260.635H263.457V277.165C263.457 278.745 263.182 280.01 262.632 280.96C262.082 281.91 261.327 282.595 260.367 283.015C259.417 283.445 258.327 283.665 257.097 283.675ZM257.052 273.88C257.802 273.88 258.427 273.76 258.927 273.52C259.427 273.27 259.822 272.965 260.112 272.605C260.402 272.245 260.602 271.9 260.712 271.57V264.61C260.622 264.37 260.427 264.105 260.127 263.815C259.827 263.525 259.427 263.275 258.927 263.065C258.427 262.855 257.817 262.75 257.097 262.75C255.817 262.75 254.782 263.21 253.992 264.13C253.202 265.04 252.807 266.435 252.807 268.315C252.807 270.135 253.202 271.52 253.992 272.47C254.792 273.41 255.812 273.88 257.052 273.88ZM274.707 277.225C273.217 277.225 271.907 276.9 270.777 276.25C269.657 275.6 268.787 274.645 268.167 273.385C267.547 272.115 267.237 270.565 267.237 268.735C267.237 266.975 267.557 265.465 268.197 264.205C268.837 262.945 269.717 261.98 270.837 261.31C271.957 260.64 273.232 260.305 274.662 260.305C276.082 260.305 277.297 260.61 278.307 261.22C279.327 261.83 280.112 262.705 280.662 263.845C281.212 264.975 281.482 266.33 281.472 267.91C281.472 268.23 281.462 268.495 281.442 268.705C281.422 268.915 281.407 269.135 281.397 269.365H270.027C270.097 271.165 270.547 272.53 271.377 273.46C272.217 274.38 273.287 274.84 274.587 274.84C275.687 274.84 276.537 274.61 277.137 274.15C277.747 273.68 278.132 273.08 278.292 272.35H281.022C280.952 273.39 280.632 274.275 280.062 275.005C279.502 275.735 278.762 276.29 277.842 276.67C276.922 277.04 275.877 277.225 274.707 277.225ZM271.512 267.265H278.667C278.647 265.865 278.302 264.765 277.632 263.965C276.962 263.165 275.937 262.765 274.557 262.765C273.107 262.765 272.007 263.26 271.257 264.25C270.507 265.23 270.097 266.585 270.027 268.315C270.107 267.905 270.267 267.63 270.507 267.49C270.757 267.34 271.092 267.265 271.512 267.265ZM290.211 277.255C289.081 277.255 288.046 277.085 287.106 276.745C286.176 276.395 285.421 275.855 284.841 275.125C284.261 274.385 283.936 273.435 283.866 272.275H286.626C286.806 273.275 287.201 273.965 287.811 274.345C288.431 274.715 289.216 274.9 290.166 274.9C290.816 274.9 291.401 274.83 291.921 274.69C292.451 274.55 292.871 274.315 293.181 273.985C293.491 273.655 293.646 273.205 293.646 272.635C293.646 272.195 293.551 271.84 293.361 271.57C293.171 271.3 292.906 271.08 292.566 270.91C292.226 270.73 291.826 270.575 291.366 270.445C290.916 270.315 290.426 270.175 289.896 270.025C288.906 269.735 287.991 269.4 287.151 269.02C286.311 268.63 285.636 268.11 285.126 267.46C284.616 266.81 284.361 265.94 284.361 264.85C284.361 263.51 284.871 262.425 285.891 261.595C286.911 260.755 288.251 260.335 289.911 260.335C290.961 260.335 291.906 260.495 292.746 260.815C293.596 261.135 294.286 261.65 294.816 262.36C295.356 263.06 295.686 264 295.806 265.18H293.061C292.961 264.64 292.776 264.185 292.506 263.815C292.246 263.445 291.901 263.165 291.471 262.975C291.041 262.785 290.516 262.69 289.896 262.69C289.376 262.69 288.906 262.765 288.486 262.915C288.066 263.055 287.731 263.28 287.481 263.59C287.231 263.9 287.106 264.31 287.106 264.82C287.106 265.38 287.256 265.83 287.556 266.17C287.856 266.51 288.281 266.795 288.831 267.025C289.381 267.245 290.026 267.465 290.766 267.685C291.336 267.865 291.946 268.055 292.596 268.255C293.246 268.445 293.856 268.7 294.426 269.02C295.006 269.34 295.476 269.77 295.836 270.31C296.206 270.84 296.391 271.535 296.391 272.395C296.391 273.935 295.821 275.13 294.681 275.98C293.541 276.83 292.051 277.255 290.211 277.255Z" fill="white"/>
</svg>
