<?xml version="1.0" encoding="UTF-8"?>
<svg version="1.1" xmlns="http://www.w3.org/2000/svg" width="666" height="375">
<path d="M0 0 C0.66 0 1.32 0 2 0 C2 1.98 2 3.96 2 6 C2.99 5.34 3.98 4.68 5 4 C5 2.68 5 1.36 5 0 C5.99 0 6.98 0 8 0 C7.67 1.98 7.34 3.96 7 6 C8.32 6 9.64 6 11 6 C11 7.32 11 8.64 11 10 C11.99 10 12.98 10 14 10 C14 11.32 14 12.64 14 14 C13.34 14 12.68 14 12 14 C12 14.66 12 15.32 12 16 C12.66 16 13.32 16 14 16 C15.55961601 17.74001935 17.04949575 19.54303197 18.5 21.375 C21.60759138 25.31482541 21.60759138 25.31482541 25 29 C25.33 25.7 25.66 22.4 26 19 C27.65 19 29.3 19 31 19 C30.690625 18.13375 30.38125 17.2675 30.0625 16.375 C28.14243323 10.27596439 28.14243323 10.27596439 28 7 C29.5625 4.625 29.5625 4.625 32 3 C35.20195936 2.54257723 37.07553259 2.44531955 39.875 4.125 C41.55082674 6.91804456 41.37793949 8.78751434 41 12 C39.5 15.375 39.5 15.375 38 18 C38.33 18.33 38.66 18.66 39 19 C40.65 19 42.3 19 44 19 C44 28.9 44 38.8 44 49 C41.7725 50.175625 39.545 51.35125 37.25 52.5625 C36.55551758 52.93705322 35.86103516 53.31160645 35.14550781 53.69750977 C30.54189296 56.06107948 30.54189296 56.06107948 27.97045898 55.77124023 C25.69075874 54.87896256 24.6426207 53.91350255 23.01953125 52.09375 C22.49552734 51.51496094 21.97152344 50.93617188 21.43164062 50.33984375 C20.63016602 49.42912109 20.63016602 49.42912109 19.8125 48.5 C18.99362305 47.58927734 18.99362305 47.58927734 18.15820312 46.66015625 C16.76664795 45.1116847 15.38273074 43.55635653 14 42 C13.505 41.505 13.505 41.505 13 41 C13 42.051875 13 43.10375 13 44.1875 C11.94873551 48.19544586 11.78619071 48.62898016 8.5625 50.75 C5.35120977 52.45817335 2.20716742 53.63372472 -1.28515625 54.640625 C-2.17211182 54.89875977 -3.05906738 55.15689453 -3.97290039 55.42285156 C-4.9763147 55.70854004 -4.9763147 55.70854004 -6 56 C-6 42.33333333 -6 28.66666667 -6 15 C-6.32550502 13.33178677 -6.65846063 11.66500443 -7 10 C-5.68 10 -4.36 10 -3 10 C-3 8.68 -3 7.36 -3 6 C-2.01 6 -1.02 6 0 6 C0 4.02 0 2.04 0 0 Z M-1 11 C-1 11.66 -1 12.32 -1 13 C-0.34 13 0.32 13 1 13 C1 12.34 1 11.68 1 11 C0.34 11 -0.32 11 -1 11 Z M6 11 C6 11.66 6 12.32 6 13 C6.66 13 7.32 13 8 13 C8 12.34 8 11.68 8 11 C7.34 11 6.68 11 6 11 Z " fill="#F1F0F1" transform="translate(286,121)"/>
<path d="M0 0 C0.495 1.485 0.495 1.485 1 3 C0.34 3.99 -0.32 4.98 -1 6 C1.67662329 8.51917486 3.31506879 9.9001142 7 10.4375 C10.32304882 9.95288871 12.27589324 8.92289889 15 7 C14.7525 6.1028125 14.7525 6.1028125 14.5 5.1875 C14 3 14 3 14 0 C19.75762866 2.22453834 21.38478377 4.6689823 24 10 C22.02 9.34 20.04 8.68 18 8 C15.1811618 10.90692689 14.06313933 12.48586544 13.5625 16.5625 C14.01014028 20.07967359 14.58438512 21.4837345 17 24 C19.38564077 23.42415568 21.66682784 22.77772405 24 22 C22.13916819 26.56749627 18.96311877 29.88579746 14.6875 32.3125 C14.130625 32.539375 13.57375 32.76625 13 33 C13.66 31.02 14.32 29.04 15 27 C12.84413245 24.77676159 11.1711056 23.10708553 7.9921875 22.81640625 C4.39316703 23.12849843 2.56822251 23.41402054 0 26.0625 C-0.33 26.701875 -0.66 27.34125 -1 28 C-0.01 29.32 0.98 30.64 2 32 C-1.61537605 32 -3.11165997 31.10770759 -6 29 C-6 28.01 -6 27.02 -6 26 C-6.99 25.67 -7.98 25.34 -9 25 C-9 24.34 -9 23.68 -9 23 C-11.97 23 -14.94 23 -18 23 C-18 28.94 -18 34.88 -18 41 C-14.37 41.33 -10.74 41.66 -7 42 C-7 41.34 -7 40.68 -7 40 C-4.20807795 39.94619422 -1.4171859 39.90642331 1.375 39.875 C2.1690625 39.85824219 2.963125 39.84148437 3.78125 39.82421875 C5.85492015 39.80664527 7.92883241 39.89664832 10 40 C12.87105327 42.87105327 12.80272795 44.98880169 13 49 C12.01 51.31 11.02 53.62 10 56 C4.39 56 -1.22 56 -7 56 C-7 55.34 -7 54.68 -7 54 C-7.72590332 54.01047363 -8.45180664 54.02094727 -9.19970703 54.03173828 C-12.50810241 54.0734696 -15.81644224 54.09938064 -19.125 54.125 C-20.26710938 54.14175781 -21.40921875 54.15851563 -22.5859375 54.17578125 C-24.24882812 54.18544922 -24.24882812 54.18544922 -25.9453125 54.1953125 C-27.46922607 54.21102295 -27.46922607 54.21102295 -29.02392578 54.22705078 C-36.07308655 53.68925591 -39.51733457 51.1230462 -44 46 C-44 45.34 -44 44.68 -44 44 C-43.01 44 -42.02 44 -41 44 C-41 43.01 -41 42.02 -41 41 C-39.68 41 -38.36 41 -37 41 C-36.505 32.09 -36.505 32.09 -36 23 C-36.66 23 -37.32 23 -38 23 C-37.75873459 18.05405914 -36.22588406 15.08038638 -33.01904297 11.46850586 C-29.01796084 8.55840803 -24.3637498 9.28428953 -19.625 9.5625 C-18.60277344 9.59408203 -17.58054687 9.62566406 -16.52734375 9.65820312 C-14.01524566 9.74037456 -11.50913466 9.85515652 -9 10 C-8.566875 9.1028125 -8.566875 9.1028125 -8.125 8.1875 C-5.99240706 4.04079151 -4.03363847 2.229116 0 0 Z M-6 8 C-6.33 8.66 -6.66 9.32 -7 10 C-4.03 10.495 -4.03 10.495 -1 11 C-1.33 10.01 -1.66 9.02 -2 8 C-3.32 8 -4.64 8 -6 8 Z M5 15 C5 15.99 5 16.98 5 18 C6.32 18 7.64 18 9 18 C9 17.01 9 16.02 9 15 C7.68 15 6.36 15 5 15 Z M-6 23 C-5.67 23.66 -5.34 24.32 -5 25 C-4.01 24.67 -3.02 24.34 -2 24 C-3.32 23.67 -4.64 23.34 -6 23 Z M8 43 C8 46.3 8 49.6 8 53 C8.66 53 9.32 53 10 53 C10 49.7 10 46.4 10 43 C9.34 43 8.68 43 8 43 Z " fill="#EEEEEE" transform="translate(428,123)"/>
<path d="M0 0 C0.76550171 0.00187317 1.53100342 0.00374634 2.31970215 0.00567627 C3.93697469 0.01239396 5.55423107 0.02630295 7.17138672 0.046875 C9.64696355 0.07800821 12.12190311 0.0878448 14.59765625 0.09375 C16.16927859 0.10292133 17.74089447 0.11329752 19.3125 0.125 C20.42353088 0.13137482 20.42353088 0.13137482 21.55700684 0.13787842 C24.68273298 0.18134951 27.16919397 0.33243966 30.15625 1.328125 C30.15625 5.288125 30.15625 9.248125 30.15625 13.328125 C22.23625 13.823125 22.23625 13.823125 14.15625 14.328125 C15.8578125 16.4628125 15.8578125 16.4628125 17.59375 18.640625 C18.31304687 19.548125 19.03234375 20.455625 19.7734375 21.390625 C21.38707283 23.37989347 23.0398382 25.33794008 24.7265625 27.265625 C25.54898438 28.214375 26.37140625 29.163125 27.21875 30.140625 C27.99347656 31.01332031 28.76820313 31.88601562 29.56640625 32.78515625 C31.15625 35.328125 31.15625 35.328125 31.08984375 37.90234375 C30.03320064 40.6478474 29.25348031 42.24303769 27.15625 44.328125 C24.59130382 44.75526581 22.43302795 44.9328873 19.86328125 44.9375 C19.15725266 44.95403625 18.45122406 44.97057251 17.72380066 44.98760986 C15.47202908 45.03613788 13.22093291 45.05746938 10.96875 45.078125 C9.44072114 45.10628099 7.91272381 45.13620791 6.38476562 45.16796875 C2.64198272 45.24189694 -1.10042424 45.29144123 -4.84375 45.328125 C-5.17375 46.318125 -5.50375 47.308125 -5.84375 48.328125 C-7.32875 48.823125 -7.32875 48.823125 -8.84375 49.328125 C-10.17708333 48.66145833 -11.51041667 47.99479167 -12.84375 47.328125 C-14.32875 47.823125 -14.32875 47.823125 -15.84375 48.328125 C-16.50375 47.998125 -17.16375 47.668125 -17.84375 47.328125 C-17.988125 46.668125 -18.1325 46.008125 -18.28125 45.328125 C-18.466875 44.668125 -18.6525 44.008125 -18.84375 43.328125 C-19.83375 42.998125 -20.82375 42.668125 -21.84375 42.328125 C-21.658125 41.235 -21.4725 40.141875 -21.28125 39.015625 C-20.5859432 35.39188367 -20.5859432 35.39188367 -21.84375 32.328125 C-21.51375 31.668125 -21.18375 31.008125 -20.84375 30.328125 C-20.18375 30.18375 -19.52375 30.039375 -18.84375 29.890625 C-18.18375 29.705 -17.52375 29.519375 -16.84375 29.328125 C-16.51375 28.338125 -16.18375 27.348125 -15.84375 26.328125 C-14.85375 25.998125 -13.86375 25.668125 -12.84375 25.328125 C-12.51375 25.658125 -12.18375 25.988125 -11.84375 26.328125 C-9.51077567 26.36905437 -7.17669775 26.37054223 -4.84375 26.328125 C-4.18375 27.978125 -3.52375 29.628125 -2.84375 31.328125 C1.80677872 31.59745021 1.80677872 31.59745021 6.15625 30.328125 C-3.2881012 19.27996547 -3.2881012 19.27996547 -12.84375 8.328125 C-10.24242461 0.92435274 -7.69942968 -0.12834477 0 0 Z M4.15625 3.328125 C4.15625 5.638125 4.15625 7.948125 4.15625 10.328125 C4.81625 10.328125 5.47625 10.328125 6.15625 10.328125 C6.15625 9.338125 6.15625 8.348125 6.15625 7.328125 C7.14625 7.328125 8.13625 7.328125 9.15625 7.328125 C8.82625 8.318125 8.49625 9.308125 8.15625 10.328125 C9.14625 10.328125 10.13625 10.328125 11.15625 10.328125 C11.135625 9.544375 11.115 8.760625 11.09375 7.953125 C11.15625 5.328125 11.15625 5.328125 12.15625 3.328125 C9.51625 3.328125 6.87625 3.328125 4.15625 3.328125 Z M19.15625 3.328125 C19.15625 5.968125 19.15625 8.608125 19.15625 11.328125 C21.48919775 11.37054223 23.82327567 11.36905437 26.15625 11.328125 C27.57202477 10.14388174 27.57202477 10.14388174 27.21875 6.765625 C27.198125 5.63125 27.1775 4.496875 27.15625 3.328125 C26.49625 3.328125 25.83625 3.328125 25.15625 3.328125 C24.16625 4.813125 24.16625 4.813125 23.15625 6.328125 C22.82625 5.338125 22.49625 4.348125 22.15625 3.328125 C21.16625 3.328125 20.17625 3.328125 19.15625 3.328125 Z M-14.84375 35.328125 C-14.55391731 38.63495966 -14.55391731 38.63495966 -12.84375 41.328125 C-10.38582971 41.66156051 -10.38582971 41.66156051 -7.84375 41.328125 C-5.55774972 38.62480195 -5.55774972 38.62480195 -6.15625 36.203125 C-6.68953486 34.34218647 -6.68953486 34.34218647 -7.84375 33.328125 C-11.804918 32.93722167 -11.804918 32.93722167 -14.84375 35.328125 Z " fill="#EBEBEB" transform="translate(238.84375,132.671875)"/>
<path d="M0 0 C1.17369141 0.20882812 1.17369141 0.20882812 2.37109375 0.421875 C3.54865234 0.61523438 3.54865234 0.61523438 4.75 0.8125 C5.42933594 0.93109375 6.10867188 1.0496875 6.80859375 1.171875 C7.46859375 1.171875 8.12859375 1.171875 8.80859375 1.171875 C10.12859375 1.171875 11.44859375 1.171875 12.80859375 1.171875 C12.80859375 3.151875 12.80859375 5.131875 12.80859375 7.171875 C13.46859375 7.171875 14.12859375 7.171875 14.80859375 7.171875 C14.80859375 5.191875 14.80859375 3.211875 14.80859375 1.171875 C17.11859375 1.171875 19.42859375 1.171875 21.80859375 1.171875 C21.80859375 5.131875 21.80859375 9.091875 21.80859375 13.171875 C22.46859375 13.171875 23.12859375 13.171875 23.80859375 13.171875 C23.80859375 9.211875 23.80859375 5.251875 23.80859375 1.171875 C27.27359375 0.676875 27.27359375 0.676875 30.80859375 0.171875 C32.9824943 4.70083449 34.47722912 8.04567047 33.80859375 13.171875 C32.30859375 16.046875 32.30859375 16.046875 30.80859375 18.171875 C30.14859375 17.841875 29.48859375 17.511875 28.80859375 17.171875 C28.80859375 13.541875 28.80859375 9.911875 28.80859375 6.171875 C28.14859375 9.471875 27.48859375 12.771875 26.80859375 16.171875 C22.80859375 16.171875 18.80859375 16.171875 14.80859375 16.171875 C14.80859375 14.191875 14.80859375 12.211875 14.80859375 10.171875 C14.14859375 10.171875 13.48859375 10.171875 12.80859375 10.171875 C12.80859375 12.151875 12.80859375 14.131875 12.80859375 16.171875 C10.18411895 16.41997455 7.5609223 16.6460449 4.93359375 16.859375 C4.18722656 16.93220703 3.44085938 17.00503906 2.671875 17.08007812 C0.50390625 17.24609375 0.50390625 17.24609375 -3.19140625 17.171875 C-5.3289055 13.96562613 -5.48715624 12.94729397 -5.50390625 9.234375 C-5.52066406 8.37972656 -5.53742188 7.52507812 -5.5546875 6.64453125 C-5.01791944 2.99104543 -3.95768804 0.31040691 0 0 Z M-1.19140625 3.171875 C-1.41408085 4.60722341 -1.61902531 6.04533025 -1.81640625 7.484375 C-1.93242187 8.28488281 -2.0484375 9.08539063 -2.16796875 9.91015625 C-2.40674032 12.45910715 -2.40674032 12.45910715 -0.19140625 15.171875 C-0.19140625 11.211875 -0.19140625 7.251875 -0.19140625 3.171875 C-0.52140625 3.171875 -0.85140625 3.171875 -1.19140625 3.171875 Z M17.80859375 4.171875 C17.80859375 6.811875 17.80859375 9.451875 17.80859375 12.171875 C18.13859375 12.171875 18.46859375 12.171875 18.80859375 12.171875 C18.80859375 9.531875 18.80859375 6.891875 18.80859375 4.171875 C18.47859375 4.171875 18.14859375 4.171875 17.80859375 4.171875 Z M3.80859375 5.171875 C3.80859375 5.831875 3.80859375 6.491875 3.80859375 7.171875 C4.46859375 7.171875 5.12859375 7.171875 5.80859375 7.171875 C5.80859375 6.511875 5.80859375 5.851875 5.80859375 5.171875 C5.14859375 5.171875 4.48859375 5.171875 3.80859375 5.171875 Z M7.80859375 8.171875 C8.80859375 10.171875 8.80859375 10.171875 8.80859375 10.171875 Z M3.80859375 10.171875 C4.13859375 11.161875 4.46859375 12.151875 4.80859375 13.171875 C4.80859375 12.181875 4.80859375 11.191875 4.80859375 10.171875 C4.47859375 10.171875 4.14859375 10.171875 3.80859375 10.171875 Z " fill="#9E9C9E" transform="translate(294.19140625,222.828125)"/>
<path d="M0 0 C1.7325 0.061875 1.7325 0.061875 3.5 0.125 C4.16 0.125 4.82 0.125 5.5 0.125 C7.16666667 0.125 8.83333333 0.125 10.5 0.125 C10.83 1.115 11.16 2.105 11.5 3.125 C11.83 2.135 12.16 1.145 12.5 0.125 C14.62472576 0.07113371 16.74983652 0.03226929 18.875 0 C20.05835938 -0.02320313 21.24171875 -0.04640625 22.4609375 -0.0703125 C25.5 0.125 25.5 0.125 27.5 2.125 C27.765625 5.09375 27.765625 5.09375 27.75 8.625 C27.75773437 10.37296875 27.75773437 10.37296875 27.765625 12.15625 C27.5 15.125 27.5 15.125 25.5 17.125 C22.4609375 17.3203125 22.4609375 17.3203125 18.875 17.25 C17.68648438 17.23195312 16.49796875 17.21390625 15.2734375 17.1953125 C14.35820312 17.17210937 13.44296875 17.14890625 12.5 17.125 C11.84 15.805 11.18 14.485 10.5 13.125 C10.17 14.445 9.84 15.765 9.5 17.125 C6.86 17.125 4.22 17.125 1.5 17.125 C1.5 15.475 1.5 13.825 1.5 12.125 C0.51 12.125 -0.48 12.125 -1.5 12.125 C-1.5 13.775 -1.5 15.425 -1.5 17.125 C-2.82 16.795 -4.14 16.465 -5.5 16.125 C-5.55384521 13.83358714 -5.59272087 11.54181812 -5.625 9.25 C-5.64820313 7.97382813 -5.67140625 6.69765625 -5.6953125 5.3828125 C-5.41716133 0.74325092 -4.62830879 0.16529674 0 0 Z M-0.5 3.125 C-0.83 4.775 -1.16 6.425 -1.5 8.125 C-0.51 8.125 0.48 8.125 1.5 8.125 C1.17 6.475 0.84 4.825 0.5 3.125 C0.17 3.125 -0.16 3.125 -0.5 3.125 Z M21.5 3.125 C20.72157062 6.53062852 20.40021879 9.63265756 20.5 13.125 C21.49 13.125 22.48 13.125 23.5 13.125 C23.5 10.155 23.5 7.185 23.5 4.125 C22.84 3.795 22.18 3.465 21.5 3.125 Z M4.5 7.125 C4.5 8.115 4.5 9.105 4.5 10.125 C5.16 10.125 5.82 10.125 6.5 10.125 C6.17 9.135 5.84 8.145 5.5 7.125 C5.17 7.125 4.84 7.125 4.5 7.125 Z " fill="#C0BFC1" transform="translate(267.5,202.875)"/>
<path d="M0 0 C1.12921875 0.00580078 1.12921875 0.00580078 2.28125 0.01171875 C4.74974857 0.34635676 6.38852435 1.00208858 8.5 2.3125 C10.49404046 6.30058092 9.77258758 11.30245527 9.8125 15.6875 C9.84150391 16.74195313 9.87050781 17.79640625 9.90039062 18.8828125 C9.90876953 19.89859375 9.91714844 20.914375 9.92578125 21.9609375 C9.94036377 22.89083496 9.95494629 23.82073242 9.9699707 24.77880859 C9.35842568 28.07575105 8.08573198 29.24884414 5.5 31.3125 C3.0625 31.80859375 3.0625 31.80859375 0.5 31.75 C-0.345625 31.74871094 -1.19125 31.74742187 -2.0625 31.74609375 C-5.05893898 31.21307335 -6.3182231 30.43112319 -8.5 28.3125 C-9.01757812 25.72460938 -9.01757812 25.72460938 -9.03125 22.65625 C-9.03640625 21.55152344 -9.0415625 20.44679687 -9.046875 19.30859375 C-9.03140625 18.15488281 -9.0159375 17.00117188 -9 15.8125 C-9.01546875 14.65878906 -9.0309375 13.50507813 -9.046875 12.31640625 C-9.04171875 11.21167969 -9.0365625 10.10695312 -9.03125 8.96875 C-9.02448242 7.44991211 -9.02448242 7.44991211 -9.01757812 5.90039062 C-8.5 3.3125 -8.5 3.3125 -6.60546875 1.48168945 C-4.19177289 0.14133817 -2.74351462 -0.06107139 0 0 Z M-1.5 6.3125 C-2.32351864 12.69476945 -2.62086218 18.87994599 -2.5 25.3125 C-0.85 25.3125 0.8 25.3125 2.5 25.3125 C3.85862973 21.40769751 3.39469712 17.6023224 3.0625 13.5625 C3.01029297 12.86511719 2.95808594 12.16773438 2.90429688 11.44921875 C2.77525928 9.73653797 2.63840386 8.02444934 2.5 6.3125 C1.18 6.3125 -0.14 6.3125 -1.5 6.3125 Z " fill="#D2D1D2" transform="translate(359.5,128.6875)"/>
<path d="M0 0 C2.475 0.495 2.475 0.495 5 1 C5.33 1.66 5.66 2.32 6 3 C6.33 2.01 6.66 1.02 7 0 C7.804375 0.185625 8.60875 0.37125 9.4375 0.5625 C10.283125 0.706875 11.12875 0.85125 12 1 C12.33 0.67 12.66 0.34 13 0 C15.33294775 -0.04241723 17.66702567 -0.04092937 20 0 C21.3034381 0 22.60693886 -0.01117065 23.91015625 -0.03515625 C25.9399742 -0.06094341 27.97027394 -0.03221787 30 0 C31 1 31 1 31.09765625 3.72265625 C31.08605469 4.82480469 31.07445312 5.92695313 31.0625 7.0625 C31.05347656 8.16722656 31.04445313 9.27195313 31.03515625 10.41015625 C31.02355469 11.26480469 31.01195312 12.11945313 31 13 C32.32 13 33.64 13 35 13 C35 14.32 35 15.64 35 17 C9 17 9 17 6 16 C5.67 15.34 5.34 14.68 5 14 C4.67 14.99 4.34 15.98 4 17 C2.68 17 1.36 17 0 17 C0 11.39 0 5.78 0 0 Z M16 3 C14.76732652 4.00836062 14.76732652 4.00836062 14.90234375 6.06640625 C14.91394531 6.89011719 14.92554688 7.71382812 14.9375 8.5625 C14.94652344 9.38878906 14.95554687 10.21507812 14.96484375 11.06640625 C14.97644531 11.70449219 14.98804688 12.34257812 15 13 C17.31 13 19.62 13 22 13 C22 10.03 22 7.06 22 4 C20.0085944 3.61866701 18.00720923 3.28674418 16 3 Z " fill="#A8A6A8" transform="translate(446,203)"/>
<path d="M0 0 C2.90463988 1.39886148 2.90463988 1.39886148 7.5625 0 C7.5625 4.29 7.5625 8.58 7.5625 13 C8.2225 13 8.8825 13 9.5625 13 C9.5625 9.04 9.5625 5.08 9.5625 1 C10.8825 0.67 12.2025 0.34 13.5625 0 C13.5625 5.28 13.5625 10.56 13.5625 16 C10.79999964 17.38125018 8.61518901 17.19079306 5.5625 17 C4.9025 16.34 4.2425 15.68 3.5625 15 C2.9025 15.66 2.2425 16.32 1.5625 17 C-1.9375 17.25 -1.9375 17.25 -5.4375 17 C-7.93255962 14.50494038 -7.79698376 13.32671112 -8.0625 9.875 C-8.13726562 8.96492187 -8.21203125 8.05484375 -8.2890625 7.1171875 C-8.33804687 6.41851562 -8.38703125 5.71984375 -8.4375 5 C-9.365625 4.7834375 -9.365625 4.7834375 -10.3125 4.5625 C-12.4375 4 -12.4375 4 -14.4375 3 C-14.4375 6.3 -14.4375 9.6 -14.4375 13 C-12.4575 12.67 -10.4775 12.34 -8.4375 12 C-8.7675 13.65 -9.0975 15.3 -9.4375 17 C-12.8125 17.125 -12.8125 17.125 -16.4375 17 C-18.4375 15 -18.4375 15 -18.703125 12.03125 C-18.69796875 10.8659375 -18.6928125 9.700625 -18.6875 8.5 C-18.69265625 7.3346875 -18.6978125 6.169375 -18.703125 4.96875 C-18.4375 2 -18.4375 2 -16.4375 0 C-13 -0.125 -13 -0.125 -9.4375 0 C-6.58243773 0.15811388 -6.58243773 0.15811388 -4.5625 -0.625 C-2.4375 -1 -2.4375 -1 0 0 Z M-2.4375 3 C-3.67017348 4.00836062 -3.67017348 4.00836062 -3.53515625 6.06640625 C-3.52355469 6.89011719 -3.51195312 7.71382812 -3.5 8.5625 C-3.49097656 9.38878906 -3.48195313 10.21507812 -3.47265625 11.06640625 C-3.46105469 11.70449219 -3.44945312 12.34257812 -3.4375 13 C-2.4475 13 -1.4575 13 -0.4375 13 C-0.4375 10.03 -0.4375 7.06 -0.4375 4 C-1.0975 3.67 -1.7575 3.34 -2.4375 3 Z " fill="#C4C3C4" transform="translate(431.4375,203)"/>
<path d="M0 0 C1.37504315 0.01775886 2.75005294 0.03842505 4.125 0.0625 C5.115 0.0625 6.105 0.0625 7.125 0.0625 C9.79166667 0.0625 12.45833333 0.0625 15.125 0.0625 C15.785 1.7125 16.445 3.3625 17.125 5.0625 C15.475 5.0625 13.825 5.0625 12.125 5.0625 C14.6 5.5575 14.6 5.5575 17.125 6.0625 C17.0114371 7.70916203 16.88382619 9.35486082 16.75 11 C16.68039062 11.91652344 16.61078125 12.83304688 16.5390625 13.77734375 C16.40242188 14.53144531 16.26578125 15.28554687 16.125 16.0625 C13.36249964 17.44375018 11.17768901 17.25329306 8.125 17.0625 C7.465 16.4025 6.805 15.7425 6.125 15.0625 C5.465 15.7225 4.805 16.3825 4.125 17.0625 C0.625 17.3125 0.625 17.3125 -2.875 17.0625 C-4.875 15.0625 -4.875 15.0625 -5.10546875 11.83984375 C-5.08419922 9.93912109 -5.08419922 9.93912109 -5.0625 8 C-5.05605469 6.73027344 -5.04960937 5.46054688 -5.04296875 4.15234375 C-4.79517447 -0.40591839 -4.73407951 0.07635612 0 0 Z M-0.875 3.0625 C-0.875 6.3625 -0.875 9.6625 -0.875 13.0625 C0.115 13.0625 1.105 13.0625 2.125 13.0625 C2.125 10.0925 2.125 7.1225 2.125 4.0625 C1.135 3.7325 0.145 3.4025 -0.875 3.0625 Z M5.125 5.0625 C5.125 6.7125 5.125 8.3625 5.125 10.0625 C5.455 10.0625 5.785 10.0625 6.125 10.0625 C6.125 8.4125 6.125 6.7625 6.125 5.0625 C5.795 5.0625 5.465 5.0625 5.125 5.0625 Z M10.125 9.0625 C10.125 10.3825 10.125 11.7025 10.125 13.0625 C10.785 13.0625 11.445 13.0625 12.125 13.0625 C11.795 11.7425 11.465 10.4225 11.125 9.0625 C10.795 9.0625 10.465 9.0625 10.125 9.0625 Z " fill="#D2D1D2" transform="translate(378.875,202.9375)"/>
<path d="M0 0 C5.94 0 11.88 0 18 0 C18.16276042 3.48307292 18.32552083 6.96614583 18.48828125 10.44921875 C19.00910976 14.06321199 19.90154617 16.05766393 22 19 C21 20 21 20 18.68334961 20.11352539 C17.68311768 20.10828857 16.68288574 20.10305176 15.65234375 20.09765625 C14.57275391 20.09443359 13.49316406 20.09121094 12.38085938 20.08789062 C11.24455078 20.07951172 10.10824219 20.07113281 8.9375 20.0625 C7.79732422 20.05798828 6.65714844 20.05347656 5.48242188 20.04882812 C2.65489649 20.03699747 -0.1725264 20.0205141 -3 20 C-2.125 16.125 -2.125 16.125 -1 15 C-0.76328017 12.47206606 -0.5785675 9.97065034 -0.4375 7.4375 C-0.293125 4.983125 -0.14875 2.52875 0 0 Z M3 4 C1.58422523 5.18424326 1.58422523 5.18424326 1.9375 8.5625 C1.958125 9.696875 1.97875 10.83125 2 12 C6.41699488 13.10424872 10.47357775 13.15088074 15 13 C16.41577477 11.81575674 16.41577477 11.81575674 16.0625 8.4375 C16.041875 7.303125 16.02125 6.16875 16 5 C13.85473901 4.80606125 11.70876323 4.62001324 9.5625 4.4375 C8.36753906 4.33308594 7.17257812 4.22867188 5.94140625 4.12109375 C4.97074219 4.08113281 4.00007813 4.04117188 3 4 Z M1 15 C1 15.33 1 15.66 1 16 C6.28 16 11.56 16 17 16 C17 15.67 17 15.34 17 15 C11.72 15 6.44 15 1 15 Z " fill="#706D70" transform="translate(351,160)"/>
<path d="M0 0 C2.05078125 0.03255208 4.1015625 0.06510417 6.15234375 0.09765625 C6.48234375 1.74765625 6.81234375 3.39765625 7.15234375 5.09765625 C5.50234375 4.76765625 3.85234375 4.43765625 2.15234375 4.09765625 C1.82234375 7.06765625 1.49234375 10.03765625 1.15234375 13.09765625 C3.13234375 12.76765625 5.11234375 12.43765625 7.15234375 12.09765625 C7.48234375 8.13765625 7.81234375 4.17765625 8.15234375 0.09765625 C10.79234375 0.09765625 13.43234375 0.09765625 16.15234375 0.09765625 C15.82234375 1.41765625 15.49234375 2.73765625 15.15234375 4.09765625 C13.83234375 4.09765625 12.51234375 4.09765625 11.15234375 4.09765625 C11.15234375 4.75765625 11.15234375 5.41765625 11.15234375 6.09765625 C12.80234375 6.42765625 14.45234375 6.75765625 16.15234375 7.09765625 C16.15234375 8.08765625 16.15234375 9.07765625 16.15234375 10.09765625 C15.51296875 10.22140625 14.87359375 10.34515625 14.21484375 10.47265625 C13.53421875 10.67890625 12.85359375 10.88515625 12.15234375 11.09765625 C11.82234375 11.75765625 11.49234375 12.41765625 11.15234375 13.09765625 C12.80234375 13.09765625 14.45234375 13.09765625 16.15234375 13.09765625 C16.15234375 14.41765625 16.15234375 15.73765625 16.15234375 17.09765625 C13.51234375 17.09765625 10.87234375 17.09765625 8.15234375 17.09765625 C7.82234375 16.43765625 7.49234375 15.77765625 7.15234375 15.09765625 C6.49234375 15.75765625 5.83234375 16.41765625 5.15234375 17.09765625 C2.15234375 17.34765625 2.15234375 17.34765625 -0.84765625 17.09765625 C-2.84765625 15.09765625 -2.84765625 15.09765625 -3.078125 11.875 C-3.05685547 9.97427734 -3.05685547 9.97427734 -3.03515625 8.03515625 C-3.02871094 6.76542969 -3.02226562 5.49570313 -3.015625 4.1875 C-2.79601955 0.14778116 -2.79601955 0.14778116 0 0 Z " fill="#CCCBCC" transform="translate(239.84765625,202.90234375)"/>
<path d="M0 0 C1.14825256 0.00280975 1.14825256 0.00280975 2.31970215 0.00567627 C3.93697469 0.01239396 5.55423107 0.02630295 7.17138672 0.046875 C9.64696355 0.07800821 12.12190311 0.0878448 14.59765625 0.09375 C16.16927859 0.10292133 17.74089447 0.11329752 19.3125 0.125 C20.42353088 0.13137482 20.42353088 0.13137482 21.55700684 0.13787842 C24.68273298 0.18134951 27.16919397 0.33243966 30.15625 1.328125 C30.15625 5.288125 30.15625 9.248125 30.15625 13.328125 C24.21625 13.658125 18.27625 13.988125 12.15625 14.328125 C12.15625 13.668125 12.15625 13.008125 12.15625 12.328125 C15.78625 12.328125 19.41625 12.328125 23.15625 12.328125 C23.48625 11.668125 23.81625 11.008125 24.15625 10.328125 C24.81625 10.328125 25.47625 10.328125 26.15625 10.328125 C26.48625 8.018125 26.81625 5.708125 27.15625 3.328125 C26.49625 3.328125 25.83625 3.328125 25.15625 3.328125 C24.82625 4.648125 24.49625 5.968125 24.15625 7.328125 C23.49625 6.998125 22.83625 6.668125 22.15625 6.328125 C22.15625 5.338125 22.15625 4.348125 22.15625 3.328125 C21.49625 3.658125 20.83625 3.988125 20.15625 4.328125 C19.74895772 6.64969097 19.41186323 8.9850037 19.15625 11.328125 C16.15625 10.328125 13.15625 9.328125 10.15625 8.328125 C10.48625 7.008125 10.81625 5.688125 11.15625 4.328125 C8.84625 3.998125 6.53625 3.668125 4.15625 3.328125 C4.15625 5.638125 4.15625 7.948125 4.15625 10.328125 C4.81625 10.328125 5.47625 10.328125 6.15625 10.328125 C6.15625 9.338125 6.15625 8.348125 6.15625 7.328125 C7.14625 7.328125 8.13625 7.328125 9.15625 7.328125 C9.15625 7.988125 9.15625 8.648125 9.15625 9.328125 C10.47625 9.658125 11.79625 9.988125 13.15625 10.328125 C13.15625 10.658125 13.15625 10.988125 13.15625 11.328125 C9.85625 11.328125 6.55625 11.328125 3.15625 11.328125 C3.15625 8.358125 3.15625 5.388125 3.15625 2.328125 C2.01736328 2.43640625 2.01736328 2.43640625 0.85546875 2.546875 C-0.13839844 2.6396875 -1.13226563 2.7325 -2.15625 2.828125 C-3.14238281 2.9209375 -4.12851563 3.01375 -5.14453125 3.109375 C-7.84375 3.328125 -7.84375 3.328125 -10.84375 3.328125 C-8.12736149 -0.6518833 -4.36147626 -0.07270313 0 0 Z " fill="#9B989B" transform="translate(238.84375,132.671875)"/>
<path d="M0 0 C0.5775 0.165 1.155 0.33 1.75 0.5 C4.45033485 1.10007441 6.34161797 0.66459551 9 0 C9.33 2.64 9.66 5.28 10 8 C10.66 5.36 11.32 2.72 12 0 C13.65 0.33 15.3 0.66 17 1 C19.29612756 10.41002278 19.29612756 10.41002278 19 15 C16 15 16 15 14.3125 13.5 C13.879375 13.005 13.44625 12.51 13 12 C13 12.99 13 13.98 13 15 C8.66666667 15 4.33333333 15 0 15 C-0.19390729 12.68802845 -0.37996367 10.3753971 -0.5625 8.0625 C-0.71912109 6.13083984 -0.71912109 6.13083984 -0.87890625 4.16015625 C-0.91886719 3.11730469 -0.95882813 2.07445312 -1 1 C-0.67 0.67 -0.34 0.34 0 0 Z " fill="#A5A3A4" transform="translate(374,224)"/>
<path d="M0 0 C1.65 0 3.3 0 5 0 C5.66 2.97 6.32 5.94 7 9 C7.33 6.03 7.66 3.06 8 0 C11.375 -0.125 11.375 -0.125 15 0 C17 2 17 2 17.1875 5 C17 8 17 8 16 10 C16.27942455 11.67654729 16.60828247 13.34608154 17 15 C16.360625 14.814375 15.72125 14.62875 15.0625 14.4375 C14.0415625 14.2209375 14.0415625 14.2209375 13 14 C12.67 14.33 12.34 14.66 12 15 C9.32941149 15.14115161 6.67567762 15.04247107 4 15 C4 14.01 4 13.02 4 12 C3.5875 12.515625 3.175 13.03125 2.75 13.5625 C2.1725 14.036875 1.595 14.51125 1 15 C-0.32 14.67 -1.64 14.34 -3 14 C-2.01 9.38 -1.02 4.76 0 0 Z M12 4 C12 4.66 12 5.32 12 6 C12.66 6 13.32 6 14 6 C14 5.34 14 4.68 14 4 C13.34 4 12.68 4 12 4 Z M2 7 C3 9 3 9 3 9 Z " fill="#CFCECF" transform="translate(345,224)"/>
<path d="M0 0 C6.27 0 12.54 0 19 0 C18.67 1.32 18.34 2.64 18 4 C16.68 4 15.36 4 14 4 C14 4.66 14 5.32 14 6 C15.32 6 16.64 6 18 6 C18 7.32 18 8.64 18 10 C16.68 10 15.36 10 14 10 C14 10.99 14 11.98 14 13 C15.65 13 17.3 13 19 13 C19 14.32 19 15.64 19 17 C16.03 17 13.06 17 10 17 C9.67 12.71 9.34 8.42 9 4 C8.34 4 7.68 4 7 4 C7 8.29 7 12.58 7 17 C5.68 17 4.36 17 3 17 C2.95101563 16.07316406 2.90203125 15.14632812 2.8515625 14.19140625 C2.77679688 12.99386719 2.70203125 11.79632813 2.625 10.5625 C2.55539062 9.36753906 2.48578125 8.17257813 2.4140625 6.94140625 C2.27742188 5.97074219 2.14078125 5.00007812 2 4 C1.34 3.67 0.68 3.34 0 3 C0 2.01 0 1.02 0 0 Z " fill="#9A989A" transform="translate(301,203)"/>
<path d="M0 0 C3 0 6 0 9 0 C9.63035156 -0.01160156 10.26070313 -0.02320313 10.91015625 -0.03515625 C12.9399742 -0.06094341 14.97027394 -0.03221787 17 0 C18 1 18 1 18.09765625 3.72265625 C18.08605469 4.82480469 18.07445312 5.92695313 18.0625 7.0625 C18.05347656 8.16722656 18.04445313 9.27195313 18.03515625 10.41015625 C18.02355469 11.26480469 18.01195312 12.11945313 18 13 C19.32 13 20.64 13 22 13 C22 14.32 22 15.64 22 17 C18.04 17 14.08 17 10 17 C7.64666204 12.29332409 7.82897962 10.1306114 8 5 C6.35 4.67 4.7 4.34 3 4 C2.67 6.97 2.34 9.94 2 13 C2.99 13.33 3.98 13.66 5 14 C3.68 14 2.36 14 1 14 C0.97312721 12.18757948 0.95366285 10.37504767 0.9375 8.5625 C0.92589844 7.55316406 0.91429687 6.54382813 0.90234375 5.50390625 C1 3 1 3 2 2 C1.34 1.34 0.68 0.68 0 0 Z " fill="#C6C5C6" transform="translate(459,203)"/>
<path d="M0 0 C1.875 1.125 1.875 1.125 3 3 C3.65854353 7.9390765 2.17039738 10.65920524 0 15 C-0.25196823 18.25100364 -0.25196823 18.25100364 0 21 C-1.65 21 -3.3 21 -5 21 C-5.268125 19.96875 -5.53625 18.9375 -5.8125 17.875 C-6.5449018 15.23729205 -7.33750974 13.38748233 -8.6875 10.9375 C-10.26806547 7.40004394 -10.16500237 5.66143601 -9 2 C-5.53076119 -0.31282587 -4.07794425 -0.42478586 0 0 Z " fill="#E5E4E5" transform="translate(324,124)"/>
<path d="M0 0 C5.28 0 10.56 0 16 0 C16 1.32 16 2.64 16 4 C15.34 4 14.68 4 14 4 C14 7.63 14 11.26 14 15 C13.01 15 12.02 15 11 15 C9.71428571 7.57142857 9.71428571 7.57142857 11 4 C10.01 3.67 9.02 3.34 8 3 C8 6.96 8 10.92 8 15 C5.36 15 2.72 15 0 15 C0 10.05 0 5.1 0 0 Z M3 3 C4 7 4 7 4 7 Z " fill="#979697" transform="translate(267,224)"/>
<path d="M0 0 C4.33333333 0 8.66666667 0 13 0 C13 5.61 13 11.22 13 17 C12.01 17 11.02 17 10 17 C10 16.01 10 15.02 10 14 C9.34 14 8.68 14 8 14 C7.67 14.99 7.34 15.98 7 17 C4.66705225 17.04241723 2.33297433 17.04092937 0 17 C-1.70076961 15.29923039 -1.44800972 13.07647702 -1.6875 10.75 C-1.79449219 9.79609375 -1.90148437 8.8421875 -2.01171875 7.859375 C-1.99901735 4.76023382 -1.32271956 2.77720429 0 0 Z M2 4 C2 6.97 2 9.94 2 13 C5.465 12.505 5.465 12.505 9 12 C9 9.36 9 6.72 9 4 C6.69 4 4.38 4 2 4 Z " fill="#DBDADB" transform="translate(202,203)"/>
<path d="M0 0 C2.475 0.495 2.475 0.495 5 1 C5.33 1.66 5.66 2.32 6 3 C6 2.01 6 1.02 6 0 C7.32 0 8.64 0 10 0 C10 5.61 10 11.22 10 17 C8.68 17 7.36 17 6 17 C5.67 16.34 5.34 15.68 5 15 C4.67 15.66 4.34 16.32 4 17 C2.68 17 1.36 17 0 17 C0 11.39 0 5.78 0 0 Z " fill="#D4D2D3" transform="translate(343,203)"/>
<path d="M0 0 C2.475 0.495 2.475 0.495 5 1 C6.65 0.67 8.3 0.34 10 0 C10 5.61 10 11.22 10 17 C8.68 17 7.36 17 6 17 C5.34 15.35 4.68 13.7 4 12 C3.67 13.65 3.34 15.3 3 17 C2.01 17 1.02 17 0 17 C0 11.39 0 5.78 0 0 Z " fill="#D6D6D7" transform="translate(226,203)"/>
<path d="M0 0 C0.66 0 1.32 0 2 0 C2.99 0 3.98 0 5 0 C5 4.95 5 9.9 5 15 C3.68 14.67 2.36 14.34 1 14 C0.67 14.33 0.34 14.66 0 15 C-1.99958364 15.04080783 -4.00045254 15.04254356 -6 15 C-6.33 13.68 -6.66 12.36 -7 11 C-4.525 11.495 -4.525 11.495 -2 12 C-3.25541557 9.48916886 -4.50063488 9.12874554 -7 8 C-7 5.69 -7 3.38 -7 1 C-4.5208901 -0.23955495 -2.7458063 -0.06864516 0 0 Z M-4 4 C-4 4.66 -4 5.32 -4 6 C-2.02 6.66 -0.04 7.32 2 8 C1.67 6.68 1.34 5.36 1 4 C-0.65 4 -2.3 4 -4 4 Z " fill="#B7B5B7" transform="translate(401,224)"/>
<path d="M0 0 C0.721875 0.00257813 1.44375 0.00515625 2.1875 0.0078125 C2.909375 0.00523437 3.63125 0.00265625 4.375 0 C6.1875 0.1328125 6.1875 0.1328125 7.1875 1.1328125 C7.28682392 3.44355418 7.31719618 5.75744192 7.3125 8.0703125 C7.31507813 9.33746094 7.31765625 10.60460937 7.3203125 11.91015625 C7.1875 15.1328125 7.1875 15.1328125 6.1875 17.1328125 C3.5475 17.1328125 0.9075 17.1328125 -1.8125 17.1328125 C-3.30591703 14.14597843 -2.94425178 11.38881476 -2.9375 8.0703125 C-2.94007813 6.80058594 -2.94265625 5.53085938 -2.9453125 4.22265625 C-2.77254023 0.20316028 -2.77254023 0.20316028 0 0 Z M1.1875 3.1328125 C-0.02315165 5.55411581 0.24147467 6.61574909 0.625 9.2578125 C0.810625 10.5365625 0.99625 11.8153125 1.1875 13.1328125 C1.8475 13.1328125 2.5075 13.1328125 3.1875 13.1328125 C3.1875 9.8328125 3.1875 6.5328125 3.1875 3.1328125 C2.5275 3.1328125 1.8675 3.1328125 1.1875 3.1328125 Z " fill="#BAB8B9" transform="translate(356.8125,202.8671875)"/>
<path d="M0 0 C1.32 0 2.64 0 4 0 C3.67 1.98 3.34 3.96 3 6 C3.99 6 4.98 6 6 6 C6 4.02 6 2.04 6 0 C7.32 0 8.64 0 10 0 C10 5.61 10 11.22 10 17 C8.68 17 7.36 17 6 17 C6 14.69 6 12.38 6 10 C5.34 10 4.68 10 4 10 C4 12.31 4 14.62 4 17 C2.68 17 1.36 17 0 17 C0 11.39 0 5.78 0 0 Z " fill="#C5C4C5" transform="translate(332,203)"/>
<path d="M0 0 C3.4375 0.1875 3.4375 0.1875 4.4375 1.1875 C4.51069621 3.88404854 4.52992537 6.55441458 4.5 9.25 C4.49548828 10.00861328 4.49097656 10.76722656 4.48632812 11.54882812 C4.4745068 13.42841871 4.45657078 15.30796899 4.4375 17.1875 C3.4475 17.1875 2.4575 17.1875 1.4375 17.1875 C1.4375 15.5375 1.4375 13.8875 1.4375 12.1875 C0.4475 12.1875 -0.5425 12.1875 -1.5625 12.1875 C-1.5625 13.8375 -1.5625 15.4875 -1.5625 17.1875 C-2.8825 16.8575 -4.2025 16.5275 -5.5625 16.1875 C-5.61634521 13.89608714 -5.65522087 11.60431812 -5.6875 9.3125 C-5.71070313 8.03632813 -5.73390625 6.76015625 -5.7578125 5.4453125 C-5.47731676 0.76664358 -4.65340709 0.24491616 0 0 Z M-0.5625 3.1875 C-0.8925 4.8375 -1.2225 6.4875 -1.5625 8.1875 C-0.5725 8.1875 0.4175 8.1875 1.4375 8.1875 C1.1075 6.5375 0.7775 4.8875 0.4375 3.1875 C0.1075 3.1875 -0.2225 3.1875 -0.5625 3.1875 Z " fill="#F2F1F2" transform="translate(267.5625,202.8125)"/>
<path d="M0 0 C1.670625 0.061875 1.670625 0.061875 3.375 0.125 C3.705 1.775 4.035 3.425 4.375 5.125 C2.725 5.125 1.075 5.125 -0.625 5.125 C0.2 5.846875 1.025 6.56875 1.875 7.3125 C4.375 10.125 4.375 10.125 4.8125 12.8125 C4.375 15.125 4.375 15.125 2.375 17.125 C-0.625 17.375 -0.625 17.375 -3.625 17.125 C-4.285 16.465 -4.945 15.805 -5.625 15.125 C-5.625 14.135 -5.625 13.145 -5.625 12.125 C-2.655 12.62 -2.655 12.62 0.375 13.125 C-0.429375 12.320625 -1.23375 11.51625 -2.0625 10.6875 C-5.625 7.125 -5.625 7.125 -5.8125 4.6875 C-5.49798355 0.38910851 -4.1611078 0.14348648 0 0 Z " fill="#BEBDBE" transform="translate(195.625,202.875)"/>
<path d="M0 0 C0.99 0 1.98 0 3 0 C3 4.29 3 8.58 3 13 C3.66 13 4.32 13 5 13 C5 9.04 5 5.08 5 1 C6.32 0.67 7.64 0.34 9 0 C9 5.28 9 10.56 9 16 C6.26752652 17.36623674 4.01801098 17.128426 1 17 C0 16 0 16 -0.09765625 12.40234375 C-0.0909822 10.91403133 -0.07902183 9.42573568 -0.0625 7.9375 C-0.05798828 7.17888672 -0.05347656 6.42027344 -0.04882812 5.63867188 C-0.0370068 3.75908129 -0.01907078 1.87953101 0 0 Z " fill="#CBCACB" transform="translate(436,203)"/>
<path d="M0 0 C2.97 0 5.94 0 9 0 C8.67 1.32 8.34 2.64 8 4 C6.68 4 5.36 4 4 4 C4 4.66 4 5.32 4 6 C5.32 6 6.64 6 8 6 C8 7.32 8 8.64 8 10 C6.68 10 5.36 10 4 10 C4 10.99 4 11.98 4 13 C5.65 13 7.3 13 9 13 C9 14.32 9 15.64 9 17 C6.03 17 3.06 17 0 17 C0 11.39 0 5.78 0 0 Z " fill="#C2C1C3" transform="translate(216,203)"/>
<path d="M0 0 C2.05078125 0.03255208 4.1015625 0.06510417 6.15234375 0.09765625 C6.48234375 1.74765625 6.81234375 3.39765625 7.15234375 5.09765625 C5.50234375 4.76765625 3.85234375 4.43765625 2.15234375 4.09765625 C1.82234375 7.06765625 1.49234375 10.03765625 1.15234375 13.09765625 C3.13234375 12.76765625 5.11234375 12.43765625 7.15234375 12.09765625 C6.27734375 15.97265625 6.27734375 15.97265625 5.15234375 17.09765625 C1.65234375 17.22265625 1.65234375 17.22265625 -1.84765625 17.09765625 C-3.60325567 15.34205683 -2.97987544 13.06183183 -2.984375 10.7265625 C-2.98050781 10.02402344 -2.97664063 9.32148438 -2.97265625 8.59765625 C-2.97652344 7.89511719 -2.98039062 7.19257813 -2.984375 6.46875 C-2.97221381 0.15709375 -2.97221381 0.15709375 0 0 Z " fill="#C4C3C4" transform="translate(323.84765625,202.90234375)"/>
<path d="M0 0 C0.495 1.485 0.495 1.485 1 3 C0.34 3.99 -0.32 4.98 -1 6 C0.32 7.32 1.64 8.64 3 10 C-0.65831211 12.43887474 -2.60440025 12.30556579 -6.96875 12.4140625 C-7.98382629 12.44311172 -7.98382629 12.44311172 -9.01940918 12.4727478 C-11.17947843 12.53243147 -13.33960368 12.57883974 -15.5 12.625 C-16.95445004 12.66319833 -18.4088779 12.70225115 -19.86328125 12.7421875 C-29.52672331 13 -29.52672331 13 -34 13 C-30.93281075 10.3084483 -29.07834493 9.6327132 -25.015625 9.70703125 C-24.08105469 9.71669922 -23.14648438 9.72636719 -22.18359375 9.73632812 C-21.21550781 9.76146484 -20.24742187 9.78660156 -19.25 9.8125 C-17.77466797 9.83280273 -17.77466797 9.83280273 -16.26953125 9.85351562 C-13.84579585 9.88881274 -11.42317855 9.93811946 -9 10 C-8.566875 9.1028125 -8.566875 9.1028125 -8.125 8.1875 C-5.99240706 4.04079151 -4.03363847 2.229116 0 0 Z M-6 8 C-6.33 8.66 -6.66 9.32 -7 10 C-4.03 10.495 -4.03 10.495 -1 11 C-1.33 10.01 -1.66 9.02 -2 8 C-3.32 8 -4.64 8 -6 8 Z " fill="#E5DFE5" transform="translate(428,123)"/>
<path d="M0 0 C2.64 0 5.28 0 8 0 C7.67 1.32 7.34 2.64 7 4 C5.68 4 4.36 4 3 4 C3 4.66 3 5.32 3 6 C4.65 6.33 6.3 6.66 8 7 C8 7.99 8 8.98 8 10 C7.360625 10.12375 6.72125 10.2475 6.0625 10.375 C5.381875 10.58125 4.70125 10.7875 4 11 C3.67 11.66 3.34 12.32 3 13 C4.65 13 6.3 13 8 13 C8 14.32 8 15.64 8 17 C5.36 17 2.72 17 0 17 C0 11.39 0 5.78 0 0 Z " fill="#DCDBDC" transform="translate(248,203)"/>
<path d="M0 0 C0.98291016 0.00966797 1.96582031 0.01933594 2.97851562 0.02929688 C4.00267578 0.05443359 5.02683594 0.07957031 6.08203125 0.10546875 C7.11779297 0.11900391 8.15355469 0.13253906 9.22070312 0.14648438 C11.77916824 0.18185486 14.33658905 0.23121331 16.89453125 0.29296875 C16.85328125 1.07671875 16.81203125 1.86046875 16.76953125 2.66796875 C16.60724391 5.45412994 16.60724391 5.45412994 18.89453125 7.29296875 C18.89453125 6.30296875 18.89453125 5.31296875 18.89453125 4.29296875 C19.55453125 4.29296875 20.21453125 4.29296875 20.89453125 4.29296875 C21.22453125 6.60296875 21.55453125 8.91296875 21.89453125 11.29296875 C18.89453125 10.29296875 15.89453125 9.29296875 12.89453125 8.29296875 C13.22453125 6.97296875 13.55453125 5.65296875 13.89453125 4.29296875 C11.58453125 3.96296875 9.27453125 3.63296875 6.89453125 3.29296875 C6.89453125 5.60296875 6.89453125 7.91296875 6.89453125 10.29296875 C7.55453125 10.29296875 8.21453125 10.29296875 8.89453125 10.29296875 C8.89453125 9.30296875 8.89453125 8.31296875 8.89453125 7.29296875 C9.88453125 7.29296875 10.87453125 7.29296875 11.89453125 7.29296875 C11.89453125 7.95296875 11.89453125 8.61296875 11.89453125 9.29296875 C13.21453125 9.62296875 14.53453125 9.95296875 15.89453125 10.29296875 C15.89453125 10.62296875 15.89453125 10.95296875 15.89453125 11.29296875 C12.59453125 11.29296875 9.29453125 11.29296875 5.89453125 11.29296875 C5.89453125 8.32296875 5.89453125 5.35296875 5.89453125 2.29296875 C4.75564453 2.40125 4.75564453 2.40125 3.59375 2.51171875 C2.59988281 2.60453125 1.60601562 2.69734375 0.58203125 2.79296875 C-0.40410156 2.88578125 -1.39023438 2.97859375 -2.40625 3.07421875 C-5.10546875 3.29296875 -5.10546875 3.29296875 -8.10546875 3.29296875 C-5.60795648 0.15933179 -3.93251113 -0.06819383 0 0 Z " fill="#B2B0B2" transform="translate(236.10546875,132.70703125)"/>
<path d="M0 0 C1.65 0 3.3 0 5 0 C5.33 0.99 5.66 1.98 6 3 C6.66 2.01 7.32 1.02 8 0 C8 2.97 8 5.94 8 9 C7.01 9 6.02 9 5 9 C4.67 11.64 4.34 14.28 4 17 C2.35 16.67 0.7 16.34 -1 16 C-1 14.02 -1 12.04 -1 10 C-0.34 10 0.32 10 1 10 C0.34 9.01 -0.32 8.02 -1 7 C-0.625 3.3125 -0.625 3.3125 0 0 Z " fill="#B6B5B6" transform="translate(273,203)"/>
<path d="M0 0 C0.80050781 0.13921875 1.60101563 0.2784375 2.42578125 0.421875 C3.23402344 0.55078125 4.04226563 0.6796875 4.875 0.8125 C5.79732422 0.99039063 5.79732422 0.99039063 6.73828125 1.171875 C6.73828125 1.501875 6.73828125 1.831875 6.73828125 2.171875 C4.75828125 2.171875 2.77828125 2.171875 0.73828125 2.171875 C1.06828125 5.141875 1.39828125 8.111875 1.73828125 11.171875 C2.06828125 10.511875 2.39828125 9.851875 2.73828125 9.171875 C4.05828125 9.501875 5.37828125 9.831875 6.73828125 10.171875 C6.53203125 10.790625 6.32578125 11.409375 6.11328125 12.046875 C5.98953125 12.748125 5.86578125 13.449375 5.73828125 14.171875 C6.39828125 14.831875 7.05828125 15.491875 7.73828125 16.171875 C4.10828125 16.501875 0.47828125 16.831875 -3.26171875 17.171875 C-5.399218 13.96562613 -5.55746874 12.94729397 -5.57421875 9.234375 C-5.59097656 8.37972656 -5.60773438 7.52507812 -5.625 6.64453125 C-5.07885303 2.9272083 -4.00998691 0.3047313 0 0 Z M-1.26171875 3.171875 C-1.48439335 4.60722341 -1.68933781 6.04533025 -1.88671875 7.484375 C-2.00273437 8.28488281 -2.11875 9.08539063 -2.23828125 9.91015625 C-2.47705282 12.45910715 -2.47705282 12.45910715 -0.26171875 15.171875 C-0.26171875 11.211875 -0.26171875 7.251875 -0.26171875 3.171875 C-0.59171875 3.171875 -0.92171875 3.171875 -1.26171875 3.171875 Z M3.73828125 10.171875 C4.06828125 11.161875 4.39828125 12.151875 4.73828125 13.171875 C4.73828125 12.181875 4.73828125 11.191875 4.73828125 10.171875 C4.40828125 10.171875 4.07828125 10.171875 3.73828125 10.171875 Z " fill="#949294" transform="translate(294.26171875,222.828125)"/>
<path d="M0 0 C1.65 0.33 3.3 0.66 5 1 C5.33820166 2.5823006 5.67035939 4.16589375 6 5.75 C6.185625 6.63171875 6.37125 7.5134375 6.5625 8.421875 C7 11 7 11 7 15 C5.68 14.67 4.36 14.34 3 14 C3 13.34 3 12.68 3 12 C2.34 12 1.68 12 1 12 C1 12.99 1 13.98 1 15 C-0.32 15 -1.64 15 -3 15 C-2.69163768 12.87439563 -2.37818386 10.74952935 -2.0625 8.625 C-1.88847656 7.44164062 -1.71445312 6.25828125 -1.53515625 5.0390625 C-1 2 -1 2 0 0 Z " fill="#F2F2F2" transform="translate(366,224)"/>
<path d="M0 0 C1.65 0.33 3.3 0.66 5 1 C7.29612756 10.41002278 7.29612756 10.41002278 7 15 C4 15 4 15 2.3125 13.5 C1.879375 13.005 1.44625 12.51 1 12 C1 12.99 1 13.98 1 15 C0.01 15 -0.98 15 -2 15 C-2.22577402 9.5814234 -1.46670113 5.22512279 0 0 Z " fill="#BDBCBD" transform="translate(386,224)"/>
<path d="M0 0 C0.05386629 2.12472576 0.09273071 4.24983652 0.125 6.375 C0.14820313 7.55835938 0.17140625 8.74171875 0.1953125 9.9609375 C0 13 0 13 -2 15 C-4.68839385 15.26991906 -7.29141936 15.08737357 -10 15 C-9.67 14.01 -9.34 13.02 -9 12 C-8.81050404 9.16598261 -8.68352559 6.3343025 -8.57421875 3.49609375 C-8 1 -8 1 -6.20703125 -0.40234375 C-3.71170737 -1.07806862 -2.40750673 -0.85982383 0 0 Z M-6 1 C-6.77842938 4.40562852 -7.09978121 7.50765756 -7 11 C-6.01 11 -5.02 11 -4 11 C-4 8.03 -4 5.06 -4 2 C-4.66 1.67 -5.32 1.34 -6 1 Z " fill="#C3C2C3" transform="translate(295,205)"/>
<path d="M0 0 C2.31 0 4.62 0 7 0 C8 1 8 1 8.125 3.9375 C8 7 8 7 7 9 C7.27942455 10.67654729 7.60828247 12.34608154 8 14 C7.4225 13.814375 6.845 13.62875 6.25 13.4375 C3.69606643 12.7761831 3.69606643 12.7761831 0 14 C0 9.38 0 4.76 0 0 Z M3 3 C3 3.66 3 4.32 3 5 C3.66 5 4.32 5 5 5 C5 4.34 5 3.68 5 3 C4.34 3 3.68 3 3 3 Z " fill="#F8F7F8" transform="translate(354,225)"/>
<path d="M0 0 C1.32 0 2.64 0 4 0 C4.33 1.32 4.66 2.64 5 4 C5.33 2.68 5.66 1.36 6 0 C7.32 0 8.64 0 10 0 C9.44854729 5.23880078 8.57077907 9.97350697 7 15 C5.68 15 4.36 15 3 15 C2.01 10.05 1.02 5.1 0 0 Z " fill="#C9C8C9" transform="translate(332,224)"/>
<path d="M0 0 C1.32 0 2.64 0 4 0 C4.66 0.66 5.32 1.32 6 2 C6.33 1.34 6.66 0.68 7 0 C8.32 0 9.64 0 11 0 C10.67515625 1.08667969 10.67515625 1.08667969 10.34375 2.1953125 C8.23396431 9.46667314 8.23396431 9.46667314 8 17 C6.35 16.67 4.7 16.34 3 16 C2.95101563 15.43152344 2.90203125 14.86304688 2.8515625 14.27734375 C2.36856919 9.28918871 1.52361837 4.77400422 0 0 Z " fill="#D1D0D1" transform="translate(396,203)"/>
<path d="M0 0 C1.79341325 4.05877734 2.46950965 7.5866093 2 12 C0.5 14.875 0.5 14.875 -1 17 C-1.66 16.67 -2.32 16.34 -3 16 C-3 12.37 -3 8.74 -3 5 C-3.33 7.64 -3.66 10.28 -4 13 C-4.33 13 -4.66 13 -5 13 C-5 9.04 -5 5.08 -5 1 C-5.66 1 -6.32 1 -7 1 C-7 4.63 -7 8.26 -7 12 C-7.33 12 -7.66 12 -8 12 C-8 8.04 -8 4.08 -8 0 C-3 -1 -3 -1 0 0 Z " fill="#C0BFC1" transform="translate(326,224)"/>
<path d="M0 0 C1.4540625 0.0309375 1.4540625 0.0309375 2.9375 0.0625 C1.9475 0.3925 0.9575 0.7225 -0.0625 1.0625 C-0.0625 4.6925 -0.0625 8.3225 -0.0625 12.0625 C1.9175 11.7325 3.8975 11.4025 5.9375 11.0625 C5.6075 12.7125 5.2775 14.3625 4.9375 16.0625 C1.5625 16.1875 1.5625 16.1875 -2.0625 16.0625 C-4.0625 14.0625 -4.0625 14.0625 -4.29296875 11.05859375 C-4.27878906 9.88425781 -4.26460938 8.70992187 -4.25 7.5 C-4.24033203 5.73462891 -4.24033203 5.73462891 -4.23046875 3.93359375 C-3.99858249 -0.03004349 -4.00380353 0.08171028 0 0 Z " fill="#C9C8C9" transform="translate(417.0625,203.9375)"/>
<path d="M0 0 C0.66 0 1.32 0 2 0 C2 1.98 2 3.96 2 6 C2.99 5.34 3.98 4.68 5 4 C5 2.68 5 1.36 5 0 C5.99 0 6.98 0 8 0 C7.67 1.98 7.34 3.96 7 6 C8.32 6 9.64 6 11 6 C11 7.32 11 8.64 11 10 C11.99 10 12.98 10 14 10 C14 11.32 14 12.64 14 14 C13.34 14 12.68 14 12 14 C12 14.66 12 15.32 12 16 C11.34 16 10.68 16 10 16 C10 13.03 10 10.06 10 7 C6.04 7 2.08 7 -2 7 C-1.814375 7.928125 -1.62875 8.85625 -1.4375 9.8125 C-1 13 -1 13 -2 16 C-3.32 15.67 -4.64 15.34 -6 15 C-6.33 13.35 -6.66 11.7 -7 10 C-5.68 10 -4.36 10 -3 10 C-3 8.68 -3 7.36 -3 6 C-2.01 6 -1.02 6 0 6 C0 4.02 0 2.04 0 0 Z " fill="#8E8B8E" transform="translate(286,121)"/>
<path d="M0 0 C2.97 0 5.94 0 9 0 C9 1.32 9 2.64 9 4 C8.34 4 7.68 4 7 4 C7 8.29 7 12.58 7 17 C5.68 17 4.36 17 3 17 C2.95101563 16.07316406 2.90203125 15.14632812 2.8515625 14.19140625 C2.77679688 12.99386719 2.70203125 11.79632813 2.625 10.5625 C2.55539062 9.36753906 2.48578125 8.17257813 2.4140625 6.94140625 C2.27742188 5.97074219 2.14078125 5.00007812 2 4 C1.34 3.67 0.68 3.34 0 3 C0 2.01 0 1.02 0 0 Z " fill="#C6C5C6" transform="translate(301,203)"/>
<path d="M0 0 C2.5625 0.1875 2.5625 0.1875 4.5625 2.1875 C4.79296875 4.53515625 4.79296875 4.53515625 4.75 7.25 C4.74033203 8.59771484 4.74033203 8.59771484 4.73046875 9.97265625 C4.5625 12.1875 4.5625 12.1875 3.5625 13.1875 C1.22952567 13.22842937 -1.10455225 13.22991723 -3.4375 13.1875 C-3.46436553 11.20840602 -3.48383375 9.22921029 -3.5 7.25 C-3.51160156 6.14785156 -3.52320313 5.04570312 -3.53515625 3.91015625 C-3.40429947 0.26186919 -3.40429947 0.26186919 0 0 Z M-0.4375 3.1875 C-0.4375 5.4975 -0.4375 7.8075 -0.4375 10.1875 C0.2225 10.1875 0.8825 10.1875 1.5625 10.1875 C1.5625 7.8775 1.5625 5.5675 1.5625 3.1875 C0.9025 3.1875 0.2425 3.1875 -0.4375 3.1875 Z " fill="#C0BDC0" transform="translate(374.4375,129.8125)"/>
<path d="M0 0 C1.32 0 2.64 0 4 0 C4 4.29 4 8.58 4 13 C5.32 13 6.64 13 8 13 C8 14.32 8 15.64 8 17 C5.36 17 2.72 17 0 17 C0 11.39 0 5.78 0 0 Z " fill="#8D8C8D" transform="translate(365,203)"/>
<path d="M0 0 C5.28 0 10.56 0 16 0 C16 1.32 16 2.64 16 4 C11.38 4 6.76 4 2 4 C2 6.64 2 9.28 2 12 C1.34 12 0.68 12 0 12 C0 8.04 0 4.08 0 0 Z " fill="#C3C1C3" transform="translate(352,161)"/>
<path d="M0 0 C3.96 0 7.92 0 12 0 C12 1.98 12 3.96 12 6 C8.26562152 6.87867729 4.83225427 7.08912219 1 7 C1.66 6.67 2.32 6.34 3 6 C3 5.34 3 4.68 3 4 C2.01 4 1.02 4 0 4 C0 2.68 0 1.36 0 0 Z M8 4 C8 4.66 8 5.32 8 6 C8.66 6 9.32 6 10 6 C10 5.34 10 4.68 10 4 C9.34 4 8.68 4 8 4 Z " fill="#E1DFE1" transform="translate(284,128)"/>
<path d="M0 0 C2.31 0 4.62 0 7 0 C7 4.29 7 8.58 7 13 C5.68 12.67 4.36 12.34 3 12 C3.66 11.67 4.32 11.34 5 11 C5 10.01 5 9.02 5 8 C4.01 7.67 3.02 7.34 2 7 C1.67 8.65 1.34 10.3 1 12 C0.67 12 0.34 12 0 12 C0 8.04 0 4.08 0 0 Z M3 3 C3 3.66 3 4.32 3 5 C3.66 5 4.32 5 5 5 C5 4.34 5 3.68 5 3 C4.34 3 3.68 3 3 3 Z " fill="#DDDCDD" transform="translate(295,225)"/>
<path d="M0 0 C1.98 0 3.96 0 6 0 C5.01 0.66 4.02 1.32 3 2 C2.41651248 4.6556728 2.41651248 4.6556728 2.3125 7.625 C2.21388672 9.12933594 2.21388672 9.12933594 2.11328125 10.6640625 C2.05720703 11.82035156 2.05720703 11.82035156 2 13 C3.32 13 4.64 13 6 13 C6 12.34 6 11.68 6 11 C6.99 11 7.98 11 9 11 C8.67 12.65 8.34 14.3 8 16 C5.66705225 16.04241723 3.33297433 16.04092937 1 16 C0 15 0 15 -0.09765625 11.62109375 C-0.09098369 10.22652923 -0.07902532 8.83198257 -0.0625 7.4375 C-0.05798828 6.72658203 -0.05347656 6.01566406 -0.04882812 5.28320312 C-0.03700864 3.52209987 -0.01907263 1.76103964 0 0 Z " fill="#E7E7E7" transform="translate(458,204)"/>
<path d="M0 0 C0.99 0 1.98 0 3 0 C3.19436491 2.45796853 3.3807742 4.91609294 3.5625 7.375 C3.61857422 8.07367188 3.67464844 8.77234375 3.73242188 9.4921875 C4.11328125 14.7734375 4.11328125 14.7734375 3 17 C-2.61 17 -8.22 17 -14 17 C-13.505 15.515 -13.505 15.515 -13 14 C-6.565 13.505 -6.565 13.505 0 13 C0.66 9.04 1.32 5.08 2 1 C1.34 0.67 0.68 0.34 0 0 Z " fill="#646163" transform="translate(366,160)"/>
<path d="M0 0 C0.99 0.33 1.98 0.66 3 1 C2.34 1 1.68 1 1 1 C1 4.96 1 8.92 1 13 C2.8975 12.79375 4.795 12.5875 6.75 12.375 C10.87452049 11.92668256 13.44181064 11.73726793 17 14 C15.39318359 14.07347656 15.39318359 14.07347656 13.75390625 14.1484375 C12.35674361 14.22345294 10.9596095 14.2990013 9.5625 14.375 C8.85544922 14.4059375 8.14839844 14.436875 7.41992188 14.46875 C5.60760812 14.57280629 3.80182012 14.77919892 2 15 C1.67 15.66 1.34 16.32 1 17 C2.65 17 4.3 17 6 17 C6 17.66 6 18.32 6 19 C3.36 19 0.72 19 -2 19 C-1.84660156 18.49984375 -1.69320313 17.9996875 -1.53515625 17.484375 C-0.80542604 14.09672234 -0.63643523 10.70038481 -0.4375 7.25 C-0.39431641 6.55261719 -0.35113281 5.85523438 -0.30664062 5.13671875 C-0.20110404 3.42468078 -0.1001009 1.71236439 0 0 Z " fill="#A7A4A6" transform="translate(351,160)"/>
<path d="M0 0 C2.64 0 5.28 0 8 0 C7.67 0.99 7.34 1.98 7 3 C6.34 3 5.68 3 5 3 C5 6.63 5 10.26 5 14 C4.01 14 3.02 14 2 14 C0.71428571 6.57142857 0.71428571 6.57142857 2 3 C1.34 3 0.68 3 0 3 C0 2.01 0 1.02 0 0 Z " fill="#C9C8CA" transform="translate(276,225)"/>
<path d="M0 0 C3.33333333 0 6.66666667 0 10 0 C10 5.28 10 10.56 10 16 C7.32072659 11.98108988 7.84398752 9.75838077 8 5 C6.35 4.67 4.7 4.34 3 4 C2.67 6.97 2.34 9.94 2 13 C2.99 13.33 3.98 13.66 5 14 C3.68 14 2.36 14 1 14 C0.97312721 12.18757948 0.95366285 10.37504767 0.9375 8.5625 C0.92589844 7.55316406 0.91429687 6.54382813 0.90234375 5.50390625 C1 3 1 3 2 2 C1.34 1.34 0.68 0.68 0 0 Z " fill="#989698" transform="translate(459,203)"/>
<path d="M0 0 C1.32 0.33 2.64 0.66 4 1 C4.12375 2.134375 4.2475 3.26875 4.375 4.4375 C4.684375 6.2009375 4.684375 6.2009375 5 8 C5.66 8.33 6.32 8.66 7 9 C5.35 9 3.7 9 2 9 C2 11.31 2 13.62 2 16 C1.34 16 0.68 16 0 16 C0 10.72 0 5.44 0 0 Z " fill="#F2F1F2" transform="translate(447,203)"/>
<path d="M0 0 C0.33 0 0.66 0 1 0 C1 3.63 1 7.26 1 11 C2.32 11 3.64 11 5 11 C5 7.37 5 3.74 5 0 C5.66 0 6.32 0 7 0 C7 4.62 7 9.24 7 14 C4.69 14 2.38 14 0 14 C0 9.38 0 4.76 0 0 Z " fill="#EEEEEF" transform="translate(314,225)"/>
<path d="M0 0 C5.94 0 11.88 0 18 0 C17.67 0.66 17.34 1.32 17 2 C16.01 2 15.02 2 14 2 C14.66 2.66 15.32 3.32 16 4 C14.35 4 12.7 4 11 4 C10.67 3.01 10.34 2.02 10 1 C7.03 1 4.06 1 1 1 C1 6.94 1 12.88 1 19 C2.32 19.33 3.64 19.66 5 20 C3.35 20 1.7 20 0 20 C0 13.4 0 6.8 0 0 Z " fill="#605A5F" transform="translate(409,145)"/>
<path d="M0 0 C0.33 0 0.66 0 1 0 C1 3.3 1 6.6 1 10 C2.98 10 4.96 10 7 10 C7 11.65 7 13.3 7 15 C7.66 15.33 8.32 15.66 9 16 C8.01 16 7.02 16 6 16 C6 14.35 6 12.7 6 11 C5.01 11 4.02 11 3 11 C3 12.65 3 14.3 3 16 C1.68 15.67 0.36 15.34 -1 15 C-1.02685412 12.68756208 -1.04632841 10.3750373 -1.0625 8.0625 C-1.07410156 6.77472656 -1.08570313 5.48695313 -1.09765625 4.16015625 C-1 1 -1 1 0 0 Z " fill="#ACAAAC" transform="translate(263,204)"/>
<path d="M0 0 C0.99 0.33 1.98 0.66 3 1 C3 4.96 3 8.92 3 13 C1.68 13 0.36 13 -1 13 C-1.33 9.04 -1.66 5.08 -2 1 C-1.34 0.67 -0.68 0.34 0 0 Z " fill="#A2A1A3" transform="translate(346,130)"/>
<path d="M0 0 C0.33 0 0.66 0 1 0 C1 5.61 1 11.22 1 17 C0.01 16.67 -0.98 16.34 -2 16 C-3.21977329 13.56045342 -3.20153813 11.84694151 -3.25 9.125 C-3.27578125 8.26132813 -3.3015625 7.39765625 -3.328125 6.5078125 C-2.9392597 3.5357706 -2.01054707 2.1831698 0 0 Z " fill="#DBDADB" transform="translate(292,223)"/>
<path d="M0 0 C2.31 0 4.62 0 7 0 C7 0.33 7 0.66 7 1 C5.02 1 3.04 1 1 1 C1 5.62 1 10.24 1 15 C-0.65 15 -2.3 15 -4 15 C-4 14.01 -4 13.02 -4 12 C-4.99 12.33 -5.98 12.66 -7 13 C-7 12.34 -7 11.68 -7 11 C-6.01 10.34 -5.02 9.68 -4 9 C-3.26656572 5.93443402 -3.26656572 5.93443402 -3 3 C-2.67 3 -2.34 3 -2 3 C-1.67 4.98 -1.34 6.96 -1 9 C-0.67 6.03 -0.34 3.06 0 0 Z " fill="#939193" transform="translate(353,224)"/>
<path d="M0 0 C0.99 0 1.98 0 3 0 C3 5.61 3 11.22 3 17 C2.01 17 1.02 17 0 17 C0 11.39 0 5.78 0 0 Z " fill="#E6E5E6" transform="translate(212,203)"/>
<path d="M0 0 C0.66 0 1.32 0 2 0 C2 5.28 2 10.56 2 16 C0.68 16 -0.64 16 -2 16 C-2.33 13.69 -2.66 11.38 -3 9 C-2.01 9 -1.02 9 0 9 C0 6.03 0 3.06 0 0 Z " fill="#F5F4F5" transform="translate(281,203)"/>
<path d="M0 0 C2.31 0 4.62 0 7 0 C7.04241723 2.33294775 7.04092937 4.66702567 7 7 C6 8 6 8 2.9375 8.0625 C1.968125 8.041875 0.99875 8.02125 0 8 C-0.33 6.68 -0.66 5.36 -1 4 C1.475 4.495 1.475 4.495 4 5 C3.67 4.34 3.34 3.68 3 3 C2.01 2.67 1.02 2.34 0 2 C0 1.34 0 0.68 0 0 Z " fill="#D4D3D4" transform="translate(395,231)"/>
<path d="M0 0 C0.33 0.66 0.66 1.32 1 2 C2.98 2 4.96 2 7 2 C7 2.99 7 3.98 7 5 C5.68 5 4.36 5 3 5 C3 6.32 3 7.64 3 9 C4.32 9 5.64 9 7 9 C7 9.66 7 10.32 7 11 C4.69 11 2.38 11 0 11 C0 7.37 0 3.74 0 0 Z " fill="#EDECED" transform="translate(312,208)"/>
<path d="M0 0 C0.125 5.75 0.125 5.75 -1 8 C-0.72057545 9.67654729 -0.39171753 11.34608154 0 13 C-0.61875 12.814375 -1.2375 12.62875 -1.875 12.4375 C-4.04160178 11.76313824 -4.04160178 11.76313824 -6 13 C-6 11.02 -6 9.04 -6 7 C-5.01 7.33 -4.02 7.66 -3 8 C-3 7.01 -3 6.02 -3 5 C-3.99 5 -4.98 5 -6 5 C-6 3.68 -6 2.36 -6 1 C-1.125 0 -1.125 0 0 0 Z M-5 2 C-5 2.66 -5 3.32 -5 4 C-4.34 4 -3.68 4 -3 4 C-3 3.34 -3 2.68 -3 2 C-3.66 2 -4.32 2 -5 2 Z " fill="#A09FA1" transform="translate(362,226)"/>
<path d="M0 0 C0.66 0 1.32 0 2 0 C1.95875 0.78375 1.9175 1.5675 1.875 2.375 C1.71271266 5.16116119 1.71271266 5.16116119 4 7 C4 6.01 4 5.02 4 4 C4.66 4 5.32 4 6 4 C6.33 6.31 6.66 8.62 7 11 C4 10 1 9 -2 8 C-1.67 6.68 -1.34 5.36 -1 4 C-3.31 3.67 -5.62 3.34 -8 3 C-8 2.67 -8 2.34 -8 2 C-5.36 2 -2.72 2 0 2 C0 1.34 0 0.68 0 0 Z " fill="#676366" transform="translate(251,133)"/>
<path d="M0 0 C0.33 1.98 0.66 3.96 1 6 C0.67 5.01 0.34 4.02 0 3 C-0.66 3 -1.32 3 -2 3 C-2.66 6.3 -3.32 9.6 -4 13 C-4.33 13 -4.66 13 -5 13 C-5 9.04 -5 5.08 -5 1 C-5.66 1 -6.32 1 -7 1 C-7 4.63 -7 8.26 -7 12 C-7.33 12 -7.66 12 -8 12 C-8 8.04 -8 4.08 -8 0 C-3 -1 -3 -1 0 0 Z " fill="#6E6D6F" transform="translate(326,224)"/>
<path d="M0 0 C6.625 -0.125 6.625 -0.125 10 1 C10 5.29 10 9.58 10 14 C9.34 14 8.68 14 8 14 C8 11.03 8 8.06 8 5 C5.03 4.505 5.03 4.505 2 4 C1.67 4.99 1.34 5.98 1 7 C1.20625 6.21625 1.4125 5.4325 1.625 4.625 C1.74875 3.75875 1.8725 2.8925 2 2 C1.34 1.34 0.68 0.68 0 0 Z " fill="#8F8D8F" transform="translate(202,203)"/>
<path d="M0 0 C0.99 0 1.98 0 3 0 C3 4.95 3 9.9 3 15 C2.01 15 1.02 15 0 15 C0 10.05 0 5.1 0 0 Z " fill="#C7C6C7" transform="translate(267,224)"/>
<path d="M0 0 C4.53002518 1.48096977 7.0603804 2.44816035 9.4375 6.6875 C9.953125 7.780625 10.46875 8.87375 11 10 C10.0925 9.608125 9.185 9.21625 8.25 8.8125 C5.03947071 7.60932055 5.03947071 7.60932055 2.625 9.375 C2.08875 9.91125 1.5525 10.4475 1 11 C0.34 10.34 -0.32 9.68 -1 9 C-0.01 8.34 0.98 7.68 2 7 C1.42415568 4.61435923 0.77772405 2.33317216 0 0 Z " fill="#B4AFB4" transform="translate(441,123)"/>
<path d="M0 0 C0.66 0 1.32 0 2 0 C0.13916819 4.56749627 -3.03688123 7.88579746 -7.3125 10.3125 C-8.1478125 10.6528125 -8.1478125 10.6528125 -9 11 C-8.649375 10.05125 -8.29875 9.1025 -7.9375 8.125 C-6.64973223 5.12939828 -6.64973223 5.12939828 -8 3 C-6.865625 2.690625 -5.73125 2.38125 -4.5625 2.0625 C-1.21224901 1.37075469 -1.21224901 1.37075469 0 0 Z " fill="#B7B3B6" transform="translate(450,145)"/>
<path d="M0 0 C2.64 0 5.28 0 8 0 C8.33 1.65 8.66 3.3 9 5 C7.35 4.67 5.7 4.34 4 4 C3.67 6.97 3.34 9.94 3 13 C3.99 12.67 4.98 12.34 6 12 C6 12.66 6 13.32 6 14 C4.68 14 3.36 14 2 14 C2.02320313 13.15695313 2.04640625 12.31390625 2.0703125 11.4453125 C2.08835938 10.34960938 2.10640625 9.25390625 2.125 8.125 C2.14820313 7.03445312 2.17140625 5.94390625 2.1953125 4.8203125 C2.30060534 1.8628949 2.30060534 1.8628949 0 0 Z " fill="#908F91" transform="translate(238,203)"/>
<path d="M0 0 C0.66 0 1.32 0 2 0 C2 4.62 2 9.24 2 14 C0.68 13.67 -0.64 13.34 -2 13 C-2 11.02 -2 9.04 -2 7 C-1.34 7 -0.68 7 0 7 C0 4.69 0 2.38 0 0 Z " fill="#EEEDEE" transform="translate(380,225)"/>
<path d="M0 0 C0.33 0.99 0.66 1.98 1 3 C1.66 3.33 2.32 3.66 3 4 C2.01 4.33 1.02 4.66 0 5 C1.32 5.66 2.64 6.32 4 7 C-4.91 7 -13.82 7 -23 7 C-23 6.67 -23 6.34 -23 6 C-16.4 6 -9.8 6 -3 6 C-2.34 4.68 -1.68 3.36 -1 2 C-0.67 1.34 -0.34 0.68 0 0 Z " fill="#594F57" transform="translate(422,127)"/>
<path d="M0 0 C0.66 0 1.32 0 2 0 C2 4.62 2 9.24 2 14 C3.32 14 4.64 14 6 14 C6 14.66 6 15.32 6 16 C4.02 16 2.04 16 0 16 C0 10.72 0 5.44 0 0 Z " fill="#FDFDFD" transform="translate(366,203)"/>
<path d="M0 0 C0.33 0.99 0.66 1.98 1 3 C0.360625 3.12375 -0.27875 3.2475 -0.9375 3.375 C-1.618125 3.58125 -2.29875 3.7875 -3 4 C-3.33 4.66 -3.66 5.32 -4 6 C-2.35 6 -0.7 6 1 6 C1 7.32 1 8.64 1 10 C-1.64 10 -4.28 10 -7 10 C-6.01 7.36 -5.02 4.72 -4 2 C-2.68 2 -1.36 2 0 2 C0 1.34 0 0.68 0 0 Z " fill="#BBBABC" transform="translate(255,210)"/>
<path d="M0 0 C1.32 0 2.64 0 4 0 C3.48041715 4.37934119 2.94324258 8.68803391 2 13 C1.67 13 1.34 13 1 13 C0.67 11.35 0.34 9.7 0 8 C-0.66 8 -1.32 8 -2 8 C-1.33333333 5.33333333 -0.66666667 2.66666667 0 0 Z " fill="#9B999C" transform="translate(338,224)"/>
<path d="M0 0 C6.625 -0.125 6.625 -0.125 10 1 C10 5.62 10 10.24 10 15 C9.67 15 9.34 15 9 15 C8.67 11.7 8.34 8.4 8 5 C6.68 4.67 5.36 4.34 4 4 C1.75 1.9375 1.75 1.9375 0 0 Z " fill="#A1A0A1" transform="translate(415,203)"/>
<path d="M0 0 C1.65 0.33 3.3 0.66 5 1 C5 2.98 5 4.96 5 7 C4.34 7 3.68 7 3 7 C3 7.66 3 8.32 3 9 C2.34 9 1.68 9 1 9 C1.33 8.01 1.66 7.02 2 6 C1.01 6 0.02 6 -1 6 C-0.67 4.02 -0.34 2.04 0 0 Z " fill="#B7B5B6" transform="translate(366,224)"/>
<path d="M0 0 C1.65 0 3.3 0 5 0 C6 4.75 6 4.75 6 7 C4.35 7 2.7 7 1 7 C0 4 0 4 0 0 Z " fill="#A4A2A3" transform="translate(318,138)"/>
<path d="M0 0 C1.98 0 3.96 0 6 0 C6 0.66 6 1.32 6 2 C5.01 2.33 4.02 2.66 3 3 C2.67 6.3 2.34 9.6 2 13 C1.34 13 0.68 13 0 13 C0 8.71 0 4.42 0 0 Z " fill="#F5F4F5" transform="translate(355,204)"/>
<path d="M0 0 C0.66 0.33 1.32 0.66 2 1 C2 1.99 2 2.98 2 4 C2.66 4.33 3.32 4.66 4 5 C3.67 3.35 3.34 1.7 3 0 C3.66 0 4.32 0 5 0 C5.33 2.97 5.66 5.94 6 9 C3.69 8.67 1.38 8.34 -1 8 C-0.67 5.36 -0.34 2.72 0 0 Z " fill="#D1D0D2" transform="translate(265,206)"/>
<path d="M0 0 C0.33 0.99 0.66 1.98 1 3 C0.01 4.485 0.01 4.485 -1 6 C0.32 7.32 1.64 8.64 3 10 C1.25 10.75 1.25 10.75 -1 11 C-3.25 9.3125 -3.25 9.3125 -5 7 C-5 5.68 -5 4.36 -5 3 C-2.5 1.25 -2.5 1.25 0 0 Z " fill="#BBB6BB" transform="translate(428,123)"/>
<path d="M0 0 C1.32 0.33 2.64 0.66 4 1 C3.01 2.485 3.01 2.485 2 4 C2.99 5.32 3.98 6.64 5 8 C1.38462395 8 -0.11165997 7.10770759 -3 5 C-3 4.01 -3 3.02 -3 2 C-2.01 2 -1.02 2 0 2 C0 1.34 0 0.68 0 0 Z " fill="#AEAAAF" transform="translate(425,147)"/>
<path d="M0 0 C0.66 0.33 1.32 0.66 2 1 C1.34 2.32 0.68 3.64 0 5 C-0.66 5 -1.32 5 -2 5 C-2 6.32 -2 7.64 -2 9 C-2.99 9 -3.98 9 -5 9 C-5 6.69 -5 4.38 -5 2 C-2 2 -2 2 0 3 C0 2.01 0 1.02 0 0 Z " fill="#D9D8D9" transform="translate(389,230)"/>
<path d="M0 0 C0.66 0 1.32 0 2 0 C2 1.98 2 3.96 2 6 C2.99 6.33 3.98 6.66 5 7 C4.01 7 3.02 7 2 7 C2 9.31 2 11.62 2 14 C1.34 14 0.68 14 0 14 C0 9.38 0 4.76 0 0 Z " fill="#FCFBFB" transform="translate(304,225)"/>
<path d="M0 0 C0.99 0.495 0.99 0.495 2 1 C2 1.33 2 1.66 2 2 C4.97 2.495 4.97 2.495 8 3 C8 3.33 8 3.66 8 4 C6.02 4 4.04 4 2 4 C1.67 5.98 1.34 7.96 1 10 C1.66 10 2.32 10 3 10 C3.33 9.01 3.66 8.02 4 7 C4 8.32 4 9.64 4 11 C2.68 11 1.36 11 0 11 C0 7.37 0 3.74 0 0 Z " fill="#575558" transform="translate(388,206)"/>
<path d="M0 0 C-2.625 3.875 -2.625 3.875 -6 5 C-6 5.66 -6 6.32 -6 7 C-6.66 7 -7.32 7 -8 7 C-8.33 5.35 -8.66 3.7 -9 2 C-5.5647952 -0.29013653 -4.014669 -0.17842973 0 0 Z " fill="#A5A3A4" transform="translate(324,124)"/>
<path d="M0 0 C1.32 0 2.64 0 4 0 C3.34 2.64 2.68 5.28 2 8 C0.68 7.34 -0.64 6.68 -2 6 C-1.34 4.02 -0.68 2.04 0 0 Z " fill="#B7B5B6" transform="translate(403,203)"/>
<path d="M0 0 C0.66 0 1.32 0 2 0 C2 3.63 2 7.26 2 11 C0.35 11 -1.3 11 -3 11 C-2.34 10.34 -1.68 9.68 -1 9 C-0.53993654 6.79749008 -0.53993654 6.79749008 -0.375 4.375 C-0.30023438 3.55773437 -0.22546875 2.74046875 -0.1484375 1.8984375 C-0.09945313 1.27195313 -0.05046875 0.64546875 0 0 Z " fill="#E3E2E3" transform="translate(266,134)"/>
<path d="M0 0 C1.61949011 2.57213134 2.04408751 3.67669159 1.625 6.75 C1.41875 7.4925 1.2125 8.235 1 9 C-0.32 8.67 -1.64 8.34 -3 8 C-3.33 6.35 -3.66 4.7 -4 3 C-2.68 3 -1.36 3 0 3 C0 2.01 0 1.02 0 0 Z " fill="#B2AFB2" transform="translate(283,128)"/>
<path d="M0 0 C0.33 0 0.66 0 1 0 C2.0070238 5.03511899 1.97387813 8.23947038 0 13 C-0.99 12.34 -1.98 11.68 -3 11 C-2.34 11 -1.68 11 -1 11 C-1.01160156 10.37351563 -1.02320313 9.74703125 -1.03515625 9.1015625 C-1.04417969 8.28429687 -1.05320312 7.46703125 -1.0625 6.625 C-1.07410156 5.81289062 -1.08570313 5.00078125 -1.09765625 4.1640625 C-1 2 -1 2 0 0 Z " fill="#989498" transform="translate(439,165)"/>
<path d="M0 0 C0.66 0 1.32 0 2 0 C3.37058195 4.11174586 2.75640862 6.73660595 2 11 C1.01 11.495 1.01 11.495 0 12 C0 8.04 0 4.08 0 0 Z " fill="#939192" transform="translate(296,158)"/>
<path d="M0 0 C2.64 0 5.28 0 8 0 C8.66 1.65 9.32 3.3 10 5 C8.35 5 6.7 5 5 5 C5.33 3.68 5.66 2.36 6 1 C4.02 1 2.04 1 0 1 C0 0.67 0 0.34 0 0 Z " fill="#A9A8A9" transform="translate(386,203)"/>
<path d="M0 0 C0.66 0 1.32 0 2 0 C1.67 1.98 1.34 3.96 1 6 C0.34 6 -0.32 6 -1 6 C-1.33 6.66 -1.66 7.32 -2 8 C-1.67 6.68 -1.34 5.36 -1 4 C-3.31 3.67 -5.62 3.34 -8 3 C-8 2.67 -8 2.34 -8 2 C-5.36 2 -2.72 2 0 2 C0 1.34 0 0.68 0 0 Z " fill="#7A767A" transform="translate(251,133)"/>
<path d="M0 0 C0.33 0 0.66 0 1 0 C1 1.98 1 3.96 1 6 C0.34 5.67 -0.32 5.34 -1 5 C-1.33 7.97 -1.66 10.94 -2 14 C-2.33 14 -2.66 14 -3 14 C-3.08153933 12.41753293 -3.13943557 10.83383727 -3.1875 9.25 C-3.22230469 8.36828125 -3.25710938 7.4865625 -3.29296875 6.578125 C-2.94779578 3.54060287 -2.05721814 2.21785733 0 0 Z " fill="#B1B0B2" transform="translate(292,223)"/>
<path d="M0 0 C1.65 0.33 3.3 0.66 5 1 C4.01 1.495 4.01 1.495 3 2 C3 3.32 3 4.64 3 6 C1.68 5.67 0.36 5.34 -1 5 C-0.67 3.35 -0.34 1.7 0 0 Z " fill="#C3C2C3" transform="translate(343,233)"/>
<path d="M0 0 C2.31 0 4.62 0 7 0 C7 1.32 7 2.64 7 4 C4.36 3.67 1.72 3.34 -1 3 C-0.67 2.01 -0.34 1.02 0 0 Z " fill="#E8E8E8" transform="translate(192,203)"/>
<path d="M0 0 C2.64 0 5.28 0 8 0 C7.67 0.66 7.34 1.32 7 2 C6.01 2 5.02 2 4 2 C4.66 2.66 5.32 3.32 6 4 C4.35 4 2.7 4 1 4 C0.67 2.68 0.34 1.36 0 0 Z " fill="#7C767B" transform="translate(419,145)"/>
<path d="M0 0 C1.76462683 3.08809695 2 4.23312136 2 8 C0.68 7.67 -0.64 7.34 -2 7 C-2 6.34 -2 5.68 -2 5 C-2.66 4.67 -3.32 4.34 -4 4 C-3.01 4 -2.02 4 -1 4 C-0.67 2.68 -0.34 1.36 0 0 Z " fill="#ABA9AB" transform="translate(371,231)"/>
<path d="M0 0 C0.66 0 1.32 0 2 0 C2 1.32 2 2.64 2 4 C-0.64 4 -3.28 4 -6 4 C-6 3.34 -6 2.68 -6 2 C-4.02 2 -2.04 2 0 2 C0 1.34 0 0.68 0 0 Z " fill="#EDEBED" transform="translate(369,175)"/>
<path d="M0 0 C0.99 0.495 0.99 0.495 2 1 C2 1.66 2 2.32 2 3 C3.32 3 4.64 3 6 3 C5.67 3.66 5.34 4.32 5 5 C4.01 4.67 3.02 4.34 2 4 C1.67 5.65 1.34 7.3 1 9 C0.67 9 0.34 9 0 9 C0 6.03 0 3.06 0 0 Z " fill="#FDFDFD" transform="translate(295,228)"/>
<path d="M0 0 C0.33 0.99 0.66 1.98 1 3 C2.65 3 4.3 3 6 3 C6 3.66 6 4.32 6 5 C3.69 5 1.38 5 -1 5 C-0.67 3.35 -0.34 1.7 0 0 Z " fill="#FEFDFE" transform="translate(313,214)"/>
<path d="M0 0 C0.66 0 1.32 0 2 0 C0.25 3.875 0.25 3.875 -2 5 C-3.66619446 5.0396713 -5.33391013 5.04384447 -7 5 C-7.33 4.34 -7.66 3.68 -8 3 C-6.865625 2.690625 -5.73125 2.38125 -4.5625 2.0625 C-1.21224901 1.37075469 -1.21224901 1.37075469 0 0 Z " fill="#8C888B" transform="translate(450,145)"/>
<path d="M0 0 C0 0.99 0 1.98 0 3 C-4.75 2.25 -4.75 2.25 -7 0 C-3.98968256 -0.93423645 -3.13349732 -1.04449911 0 0 Z " fill="#B2B1B3" transform="translate(331,205)"/>
<path d="M0 0 C0.99 0 1.98 0 3 0 C3 0.66 3 1.32 3 2 C4.32 2.33 5.64 2.66 7 3 C7 3.33 7 3.66 7 4 C4.03 4 1.06 4 -2 4 C-1.34 3.67 -0.68 3.34 0 3 C0 2.01 0 1.02 0 0 Z " fill="#6E6C6D" transform="translate(245,140)"/>
<path d="M0 0 C0.99 0 1.98 0 3 0 C3 2.31 3 4.62 3 7 C2.01 7.495 2.01 7.495 1 8 C-1.125 3.375 -1.125 3.375 0 0 Z " fill="#CCC9CC" transform="translate(253,134)"/>
<path d="M0 0 C3 3.625 3 3.625 3 7 C1.68 7 0.36 7 -1 7 C-0.67 4.69 -0.34 2.38 0 0 Z " fill="#A5A3A6" transform="translate(364,232)"/>
<path d="M0 0 C1.98 0.99 1.98 0.99 4 2 C4 2.66 4 3.32 4 4 C2.68 3.34 1.36 2.68 0 2 C0 1.34 0 0.68 0 0 Z " fill="#858184" transform="translate(326,135)"/>
<path d="M0 0 C0.66 0 1.32 0 2 0 C1.34 1.32 0.68 2.64 0 4 C-0.66 4 -1.32 4 -2 4 C-1.34 2.68 -0.68 1.36 0 0 Z " fill="#868487" transform="translate(328,121)"/>
<path d="M0 0 C0.33 0.99 0.66 1.98 1 3 C0.01 3.33 -0.98 3.66 -2 4 C-1.34 2.68 -0.68 1.36 0 0 Z " fill="#9E9A9D" transform="translate(314,135)"/>
<path d="M0 0 C1.32 0 2.64 0 4 0 C4 0.66 4 1.32 4 2 C2.68 2 1.36 2 0 2 C0 1.34 0 0.68 0 0 Z " fill="#9F9B9E" transform="translate(329,129)"/>
<path d="M0 0 C1.32 0 2.64 0 4 0 C4 0.66 4 1.32 4 2 C2.68 2 1.36 2 0 2 C0 1.34 0 0.68 0 0 Z " fill="#9E9B9B" transform="translate(309,129)"/>
<path d="M0 0 C0.99 0.33 1.98 0.66 3 1 C2.67 1.99 2.34 2.98 2 4 C1.34 2.68 0.68 1.36 0 0 Z " fill="#9C989B" transform="translate(312,121)"/>
<path d="M0 0 C0.66 0 1.32 0 2 0 C2 1.32 2 2.64 2 4 C1.34 4 0.68 4 0 4 C0 2.68 0 1.36 0 0 Z " fill="#A5A4A7" transform="translate(320,118)"/>
<path d="" fill="#08040A" transform="translate(0,0)"/>
</svg>
